<?xml version="1.0" encoding="UTF-8" standalone="no"?>
<!-- Generator: Adobe Illustrator 16.0.0, SVG Export Plug-In . SVG Version: 6.00 Build 0)  -->

<svg
   version="1.1"
   id="svg2"
   inkscape:output_extension="org.inkscape.output.svg.inkscape"
   sodipodi:docname="sport_soccer.svg"
   inkscape:version="1.1.2 (b8e25be833, 2022-02-05)"
   sodipodi:version="0.32"
   x="0px"
   y="0px"
   width="580px"
   height="580px"
   viewBox="0 0 580 580"
   enable-background="new 0 0 580 580"
   xml:space="preserve"
   xmlns:inkscape="http://www.inkscape.org/namespaces/inkscape"
   xmlns:sodipodi="http://sodipodi.sourceforge.net/DTD/sodipodi-0.dtd"
   xmlns="http://www.w3.org/2000/svg"
   xmlns:svg="http://www.w3.org/2000/svg">
<sodipodi:namedview
   showgrid="false"
   inkscape:cy="49.909018"
   inkscape:cx="-138.87727"
   inkscape:zoom="0.46083856"
   pagecolor="#ffffff"
   bordercolor="#666666"
   guidetolerance="10.0"
   objecttolerance="10.0"
   gridtolerance="10.0"
   borderopacity="1.0"
   id="base"
   inkscape:current-layer="svg2"
   inkscape:window-y="-9"
   inkscape:window-x="-9"
   inkscape:pageopacity="0.0"
   inkscape:pageshadow="2"
   inkscape:window-width="1920"
   inkscape:window-height="1001"
   inkscape:pagecheckerboard="0"
   inkscape:window-maximized="1">
	</sodipodi:namedview>
<defs
   id="defs14">
	
	
		<inkscape:perspective
   inkscape:vp_z="580 : 290 : 1"
   inkscape:vp_y="0 : 1000 : 0"
   inkscape:vp_x="0 : 290 : 1"
   sodipodi:type="inkscape:persp3d"
   id="perspective2441"
   inkscape:persp3d-origin="290 : 193.33333 : 1">
		</inkscape:perspective>
	
		<inkscape:perspective
   inkscape:vp_z="60 : 30 : 1"
   inkscape:vp_y="0 : 1000 : 0"
   inkscape:vp_x="0 : 30 : 1"
   sodipodi:type="inkscape:persp3d"
   id="perspective3452"
   inkscape:persp3d-origin="30 : 20 : 1">
		</inkscape:perspective>
	
		<inkscape:perspective
   inkscape:vp_z="744.09448 : 526.18109 : 1"
   inkscape:vp_y="0 : 1000 : 0"
   inkscape:vp_x="0 : 526.18109 : 1"
   sodipodi:type="inkscape:persp3d"
   id="perspective4471"
   inkscape:persp3d-origin="372.04724 : 350.78739 : 1">
		</inkscape:perspective>
	
		<inkscape:perspective
   inkscape:vp_z="12 : 6 : 1"
   inkscape:vp_y="0 : 1000 : 0"
   inkscape:vp_x="0 : 6 : 1"
   sodipodi:type="inkscape:persp3d"
   id="perspective4668"
   inkscape:persp3d-origin="6 : 4 : 1">
		</inkscape:perspective>
	
		<inkscape:perspective
   inkscape:vp_z="32 : 16 : 1"
   inkscape:vp_y="0 : 1000 : 0"
   inkscape:vp_x="0 : 16 : 1"
   sodipodi:type="inkscape:persp3d"
   id="perspective4904"
   inkscape:persp3d-origin="16 : 10.666667 : 1">
		</inkscape:perspective>
	
		<inkscape:perspective
   inkscape:vp_z="32 : 16 : 1"
   inkscape:vp_y="0 : 1000 : 0"
   inkscape:vp_x="0 : 16 : 1"
   sodipodi:type="inkscape:persp3d"
   id="perspective5233"
   inkscape:persp3d-origin="16 : 10.666667 : 1">
		</inkscape:perspective>
	
		<inkscape:perspective
   inkscape:vp_z="500 : 250 : 1"
   inkscape:vp_y="0 : 1000 : 0"
   inkscape:vp_x="0 : 250 : 1"
   sodipodi:type="inkscape:persp3d"
   id="perspective5412"
   inkscape:persp3d-origin="250 : 166.66667 : 1">
		</inkscape:perspective>
	
		<inkscape:perspective
   inkscape:vp_z="405.71429 : 204.28572 : 1"
   inkscape:vp_y="0 : 1000 : 0"
   inkscape:vp_x="0 : 204.28572 : 1"
   sodipodi:type="inkscape:persp3d"
   id="perspective5571"
   inkscape:persp3d-origin="202.85715 : 136.19048 : 1">
		</inkscape:perspective>
	
		<inkscape:perspective
   inkscape:vp_z="128 : 64 : 1"
   inkscape:vp_y="0 : 1000 : 0"
   inkscape:vp_x="0 : 64 : 1"
   sodipodi:type="inkscape:persp3d"
   id="perspective6552"
   inkscape:persp3d-origin="64 : 42.666667 : 1">
		</inkscape:perspective>
	
		<inkscape:perspective
   inkscape:vp_z="477 : 171.5 : 1"
   inkscape:vp_y="0 : 1000 : 0"
   inkscape:vp_x="0 : 171.5 : 1"
   sodipodi:type="inkscape:persp3d"
   id="perspective8761"
   inkscape:persp3d-origin="238.5 : 114.33333 : 1">
		</inkscape:perspective>
	
		<inkscape:perspective
   inkscape:vp_z="105.66 : 50.309502 : 1"
   inkscape:vp_y="0 : 1000 : 0"
   inkscape:vp_x="0 : 50.309502 : 1"
   sodipodi:type="inkscape:persp3d"
   id="perspective10479"
   inkscape:persp3d-origin="52.830002 : 33.539668 : 1">
		</inkscape:perspective>
</defs>
<g
   id="layer3"
   transform="matrix(48.14969,0,0,48.14969,-536.27327,-33.306752)"
   inkscape:label="Layout"
   display="none">
	<rect
   id="rect4134"
   x="1"
   y="1"
   display="inline"
   fill="none"
   stroke="#757575"
   stroke-width="0.1"
   width="10"
   height="10" />
	<rect
   id="rect4136"
   x="2"
   y="2"
   display="inline"
   fill="none"
   stroke="#757575"
   stroke-width="0.1"
   width="8"
   height="8" />
</g>
<path
   fill="param(fill) #000"
   fill-opacity="255"
   stroke="param(outline) #FFF"
   stroke-opacity="255"
   stroke-width="param(outline-width) 0"
   d="M291.688,37.219c-148.497,0-269.03,114.776-269.03,256.188  c0,141.406,120.529,256.156,269.03,256.156c148.503,0,269.031-114.75,269.031-256.156  C560.719,151.995,440.185,37.219,291.688,37.219z M345.219,108.563L411.25,83.25l72.25,59.25l-20.344,74.094l-66.031,9.875  l-61.781-61.781L345.219,108.563z M190.093,78.313L271.5,58.5l56.125,46.406l-14.844,59.219l-62.344,28.969l-78.875-20.906  l-11.719-48.219L190.093,78.313z M118.406,119.031c3.851-4.951,7.878-9.743,13.563-13.594c5.684-4.401,11.365-7.886,19.25-11.187  c-2.567,10.086-5.147,20.195-7.531,30.281l-36.313,9.344C110.309,128.557,114.005,123.616,118.406,119.031z M70.719,399.407  c-5.868,2.379-11.382-3.855-17.25-16.688c-6.418-13.938-15.035-42.001-17.969-62.906c-2.75-21.094-2.57-41.623,1.281-62.344  l38.344,12.281l20.344,85.094L70.719,399.407z M95.468,259.845l67.313-68.376l72.781,20.344l18.531,78.844l-75.906,58.688  l-66.031-1.844L95.468,259.845z M353.501,531.812c-15.221,2.212-30.647,3.853-46.969,4.22c-16.871,0.367-34.835-0.016-51.156-1.845  c-17.421-2.566-33.567-7.159-47.688-11.75c-14.12-4.945-24.933-10.434-34.469-17.219l-1.281-24.75l48.781-37.062l109.313,19.28  l31.344,48.031L353.501,531.812z M332.219,449.656l-103.063-21.625l-33.938-67.875l73.532-54.281l82.719,21.656l26.406,62.156  L332.219,449.656z M394,377.031l-23.469-53.719l39.438-75.938l62.345-11.186l37.03,62.375l-51.155,84.531L394,377.031z   M522.374,396.656c-6.229,12.465-11.93,21.287-18.531,27.155l-29.688-34.499l51.875-87.656l18.001-9.906  c0.184,21.271-1.484,39.246-4.97,57.406C534.844,367.123,528.604,383.453,522.374,396.656z"
   id="path19"
   style="fill:#0000ff" />
<path
   style="fill:#e6e6e6;stroke:#00ff00;stroke-width:2.16996"
   d="m 125.90285,346.28589 -12.97443,-1.26268 -8.14372,-42.31417 -8.14372,-42.31416 33.02665,-33.09185 c 18.16466,-18.20052 34.30789,-33.09185 35.87385,-33.09185 4.20199,0 66.39685,17.52639 68.10228,19.1911 0.80208,0.78292 5.45126,18.41234 10.33152,39.17648 8.35754,35.55906 8.6511,37.90912 5.05154,40.43979 -2.1019,1.47774 -18.9571,14.49589 -37.45598,28.92921 l -33.63434,26.24241 -19.52962,-0.3208 c -10.74129,-0.17644 -25.3681,-0.889 -32.50403,-1.58348 z"
   id="path929" /><path
   style="fill:#e6e6e6;stroke:#00ff00;stroke-width:2.16996"
   d="m 59.624976,391.1348 c -6.171797,-10.06381 -12.609078,-27.79444 -18.614893,-51.27224 -4.159515,-16.26028 -5.199109,-25.855 -5.172559,-47.73906 0.01827,-15.06379 0.794742,-28.58743 1.725481,-30.05253 1.288674,-2.02854 5.859618,-1.29763 19.166443,3.06479 l 17.474189,5.72862 9.996398,41.76912 9.996399,41.76913 -12.052544,21.89227 c -6.628901,12.04074 -13.43436,21.89227 -15.123242,21.89227 -1.688884,0 -5.016937,-3.17357 -7.395672,-7.05237 z"
   id="path968" /><path
   style="fill:#e6e6e6;stroke:#00ff00;stroke-width:2.16996"
   d="m 210.06527,181.49554 -37.30986,-10.00382 -5.8068,-23.40631 -5.8068,-23.40632 14.90722,-22.65226 14.90721,-22.652257 39.93024,-9.749459 c 38.08747,-9.299524 40.14547,-9.578866 44.59416,-6.052948 2.56516,2.033081 15.09811,12.368484 27.85101,22.967563 21.02423,17.473481 23.05757,19.801201 21.79864,24.954511 -4.16553,17.05117 -13.45255,50.60203 -14.219,51.36849 -1.8038,1.80379 -60.47736,29.1692 -61.98007,28.90756 -0.85585,-0.14901 -18.34552,-4.77265 -38.86595,-10.27475 z"
   id="path1007" /><path
   style="fill:#e6e6e6;stroke:#00ff00;stroke-width:2.16996"
   d="m 111.7528,129.59168 c 0,-3.10355 22.62362,-25.27588 30.03354,-29.43445 l 7.12867,-4.000716 -1.55955,8.340636 c -3.81404,20.39799 -1.36039,18.29713 -29.63528,25.37432 -3.28206,0.8215 -5.96738,0.69559 -5.96738,-0.27979 z"
   id="path1046" /><path
   style="fill:#e6e6e6;stroke:#00ff00;stroke-width:2.16996"
   d="m 366.85287,194.45988 -30.24932,-30.42569 4.68299,-26.50536 c 2.57565,-14.57794 5.44655,-27.18345 6.37979,-28.01223 0.93324,-0.82878 15.26749,-6.66848 31.85389,-12.977102 24.79072,-9.429134 30.87385,-11.022602 34.18504,-8.954732 7.17625,4.481646 68.03352,55.275584 67.76406,56.558634 -0.14367,0.68406 -4.49413,17.02026 -9.6677,36.30267 l -9.40648,35.05892 -21.79669,3.35281 c -11.98818,1.84405 -26.67909,3.95467 -32.64648,4.69028 l -10.84978,1.33748 z"
   id="path1085" /><path
   style="fill:#e6e6e6;stroke:#00ff00;stroke-width:2.16996"
   d="m 433.99146,379.72956 c -1.19348,-0.41542 -10.47004,-1.38508 -20.61459,-2.15479 l -18.44464,-1.39948 -11.43498,-26.42583 -11.43499,-26.42582 18.31456,-35.52301 c 10.07301,-19.53766 19.28457,-36.49303 20.47014,-37.6786 1.51729,-1.51728 53.7962,-12.32311 60.47542,-12.50001 0.9811,-0.026 35.36265,59.16682 35.36265,60.8819 0,1.01724 -10.92484,19.95619 -24.27742,42.08656 l -24.27742,40.23703 -10.98439,-0.17131 c -6.04141,-0.0942 -11.96086,-0.51121 -13.15434,-0.92664 z"
   id="path1124" /><path
   style="fill:#e6e6e6;stroke:#00ff00;stroke-width:2.16996"
   d="m 489.69312,405.55705 c -7.55533,-8.74427 -13.33618,-16.66502 -12.84634,-17.60166 0.48985,-0.93665 11.98712,-20.57687 25.54949,-43.64496 21.24729,-36.13928 25.80157,-42.52493 32.91844,-46.15569 9.8385,-5.01923 9.39449,-6.96475 5.98753,26.23517 -2.68564,26.17088 -10.10278,51.22039 -21.94621,74.11773 -13.3536,25.817 -13.43117,25.83543 -29.66291,7.04941 z"
   id="path1163" /><path
   style="fill:#e6e6e6;stroke:#00ff00;stroke-width:2.16996"
   d="m 277.97841,437.42651 -47.51519,-10.19012 -16.69177,-33.32792 -16.69177,-33.32792 25.14773,-18.67162 c 13.83125,-10.26938 30.0861,-22.25904 36.1219,-26.64369 l 10.97417,-7.97208 39.43745,10.25382 c 21.6906,5.63959 40.34583,11.19941 41.45607,12.35515 1.11023,1.15574 7.45347,15.06226 14.09608,30.90338 l 12.07746,28.80204 -21.86073,28.70183 c -12.02341,15.786 -23.47522,28.83805 -25.44848,29.00454 -1.97325,0.16649 -24.96957,-4.28284 -51.10292,-9.88741 z"
   id="path1202" /><path
   style="fill:#e6e6e6;stroke:#00ff00;stroke-width:2.16996"
   d="m 248.96973,531.79341 c -28.93902,-5.51805 -68.93414,-20.18021 -72.79702,-26.68729 -0.54723,-0.92181 -1.62966,-6.55843 -2.40541,-12.52581 l -1.41045,-10.84979 24.4894,-18.58582 24.4894,-18.58583 53.16395,9.39196 c 60.44297,10.67788 53.77512,7.19161 73.37801,38.36549 11.46553,18.23329 11.51804,18.39654 8.81652,27.41339 -1.89573,6.32741 -4.39979,9.73539 -8.27929,11.268 -9.27931,3.66583 -81.36787,4.24264 -99.44511,0.7957 z"
   id="path1241" /></svg>
