<?xml version="1.0" encoding="UTF-8" standalone="no"?>
<!-- Generator: Adobe Illustrator 16.0.0, SVG Export Plug-In . SVG Version: 6.00 Build 0)  -->

<svg
   version="1.1"
   id="svg2"
   inkscape:output_extension="org.inkscape.output.svg.inkscape"
   sodipodi:docname="sport_soccer.svg"
   inkscape:version="1.1.2 (b8e25be833, 2022-02-05)"
   sodipodi:version="0.32"
   x="0px"
   y="0px"
   width="580px"
   height="580px"
   viewBox="0 0 580 580"
   enable-background="new 0 0 580 580"
   xml:space="preserve"
   xmlns:inkscape="http://www.inkscape.org/namespaces/inkscape"
   xmlns:sodipodi="http://sodipodi.sourceforge.net/DTD/sodipodi-0.dtd"
   xmlns="http://www.w3.org/2000/svg"
   xmlns:svg="http://www.w3.org/2000/svg">
<sodipodi:namedview
   showgrid="false"
   inkscape:cy="49.909018"
   inkscape:cx="-138.87727"
   inkscape:zoom="0.46083856"
   pagecolor="#ffffff"
   bordercolor="#666666"
   guidetolerance="10.0"
   objecttolerance="10.0"
   gridtolerance="10.0"
   borderopacity="1.0"
   id="base"
   inkscape:current-layer="svg2"
   inkscape:window-y="-9"
   inkscape:window-x="-9"
   inkscape:pageopacity="0.0"
   inkscape:pageshadow="2"
   inkscape:window-width="1920"
   inkscape:window-height="1001"
   inkscape:pagecheckerboard="0"
   inkscape:window-maximized="1">
	</sodipodi:namedview>
<defs
   id="defs14">
	
	
		<inkscape:perspective
   inkscape:vp_z="580 : 290 : 1"
   inkscape:vp_y="0 : 1000 : 0"
   inkscape:vp_x="0 : 290 : 1"
   sodipodi:type="inkscape:persp3d"
   id="perspective2441"
   inkscape:persp3d-origin="290 : 193.33333 : 1">
		</inkscape:perspective>
	
		<inkscape:perspective
   inkscape:vp_z="60 : 30 : 1"
   inkscape:vp_y="0 : 1000 : 0"
   inkscape:vp_x="0 : 30 : 1"
   sodipodi:type="inkscape:persp3d"
   id="perspective3452"
   inkscape:persp3d-origin="30 : 20 : 1">
		</inkscape:perspective>
	
		<inkscape:perspective
   inkscape:vp_z="744.09448 : 526.18109 : 1"
   inkscape:vp_y="0 : 1000 : 0"
   inkscape:vp_x="0 : 526.18109 : 1"
   sodipodi:type="inkscape:persp3d"
   id="perspective4471"
   inkscape:persp3d-origin="372.04724 : 350.78739 : 1">
		</inkscape:perspective>
	
		<inkscape:perspective
   inkscape:vp_z="12 : 6 : 1"
   inkscape:vp_y="0 : 1000 : 0"
   inkscape:vp_x="0 : 6 : 1"
   sodipodi:type="inkscape:persp3d"
   id="perspective4668"
   inkscape:persp3d-origin="6 : 4 : 1">
		</inkscape:perspective>
	
		<inkscape:perspective
   inkscape:vp_z="32 : 16 : 1"
   inkscape:vp_y="0 : 1000 : 0"
   inkscape:vp_x="0 : 16 : 1"
   sodipodi:type="inkscape:persp3d"
   id="perspective4904"
   inkscape:persp3d-origin="16 : 10.666667 : 1">
		</inkscape:perspective>
	
		<inkscape:perspective
   inkscape:vp_z="32 : 16 : 1"
   inkscape:vp_y="0 : 1000 : 0"
   inkscape:vp_x="0 : 16 : 1"
   sodipodi:type="inkscape:persp3d"
   id="perspective5233"
   inkscape:persp3d-origin="16 : 10.666667 : 1">
		</inkscape:perspective>
	
		<inkscape:perspective
   inkscape:vp_z="500 : 250 : 1"
   inkscape:vp_y="0 : 1000 : 0"
   inkscape:vp_x="0 : 250 : 1"
   sodipodi:type="inkscape:persp3d"
   id="perspective5412"
   inkscape:persp3d-origin="250 : 166.66667 : 1">
		</inkscape:perspective>
	
		<inkscape:perspective
   inkscape:vp_z="405.71429 : 204.28572 : 1"
   inkscape:vp_y="0 : 1000 : 0"
   inkscape:vp_x="0 : 204.28572 : 1"
   sodipodi:type="inkscape:persp3d"
   id="perspective5571"
   inkscape:persp3d-origin="202.85715 : 136.19048 : 1">
		</inkscape:perspective>
	
		<inkscape:perspective
   inkscape:vp_z="128 : 64 : 1"
   inkscape:vp_y="0 : 1000 : 0"
   inkscape:vp_x="0 : 64 : 1"
   sodipodi:type="inkscape:persp3d"
   id="perspective6552"
   inkscape:persp3d-origin="64 : 42.666667 : 1">
		</inkscape:perspective>
	
		<inkscape:perspective
   inkscape:vp_z="477 : 171.5 : 1"
   inkscape:vp_y="0 : 1000 : 0"
   inkscape:vp_x="0 : 171.5 : 1"
   sodipodi:type="inkscape:persp3d"
   id="perspective8761"
   inkscape:persp3d-origin="238.5 : 114.33333 : 1">
		</inkscape:perspective>
	
		<inkscape:perspective
   inkscape:vp_z="105.66 : 50.309502 : 1"
   inkscape:vp_y="0 : 1000 : 0"
   inkscape:vp_x="0 : 50.309502 : 1"
   sodipodi:type="inkscape:persp3d"
   id="perspective10479"
   inkscape:persp3d-origin="52.830002 : 33.539668 : 1">
		</inkscape:perspective>
</defs>
<g
   id="layer3"
   transform="matrix(48.14969,0,0,48.14969,-536.27327,-33.306752)"
   inkscape:label="Layout"
   display="none">
	<rect
   id="rect4134"
   x="1"
   y="1"
   display="inline"
   fill="none"
   stroke="#757575"
   stroke-width="0.1"
   width="10"
   height="10" />
	<rect
   id="rect4136"
   x="2"
   y="2"
   display="inline"
   fill="none"
   stroke="#757575"
   stroke-width="0.1"
   width="8"
   height="8" />
</g>
<path
   fill="param(fill) #000"
   fill-opacity="255"
   stroke="param(outline) #FFF"
   stroke-opacity="255"
   stroke-width="param(outline-width) 0"
   d="M291.688,37.219c-148.497,0-269.03,114.776-269.03,256.188  c0,141.406,120.529,256.156,269.03,256.156c148.503,0,269.031-114.75,269.031-256.156  C560.719,151.995,440.185,37.219,291.688,37.219z M345.219,108.563L411.25,83.25l72.25,59.25l-20.344,74.094l-66.031,9.875  l-61.781-61.781L345.219,108.563z M190.093,78.313L271.5,58.5l56.125,46.406l-14.844,59.219l-62.344,28.969l-78.875-20.906  l-11.719-48.219L190.093,78.313z M118.406,119.031c3.851-4.951,7.878-9.743,13.563-13.594c5.684-4.401,11.365-7.886,19.25-11.187  c-2.567,10.086-5.147,20.195-7.531,30.281l-36.313,9.344C110.309,128.557,114.005,123.616,118.406,119.031z M70.719,399.407  c-5.868,2.379-11.382-3.855-17.25-16.688c-6.418-13.938-15.035-42.001-17.969-62.906c-2.75-21.094-2.57-41.623,1.281-62.344  l38.344,12.281l20.344,85.094L70.719,399.407z M95.468,259.845l67.313-68.376l72.781,20.344l18.531,78.844l-75.906,58.688  l-66.031-1.844L95.468,259.845z M353.501,531.812c-15.221,2.212-30.647,3.853-46.969,4.22c-16.871,0.367-34.835-0.016-51.156-1.845  c-17.421-2.566-33.567-7.159-47.688-11.75c-14.12-4.945-24.933-10.434-34.469-17.219l-1.281-24.75l48.781-37.062l109.313,19.28  l31.344,48.031L353.501,531.812z M332.219,449.656l-103.063-21.625l-33.938-67.875l73.532-54.281l82.719,21.656l26.406,62.156  L332.219,449.656z M394,377.031l-23.469-53.719l39.438-75.938l62.345-11.186l37.03,62.375l-51.155,84.531L394,377.031z   M522.374,396.656c-6.229,12.465-11.93,21.287-18.531,27.155l-29.688-34.499l51.875-87.656l18.001-9.906  c0.184,21.271-1.484,39.246-4.97,57.406C534.844,367.123,528.604,383.453,522.374,396.656z"
   id="path19" />
<path
   style="fill:#ff0000;stroke:#00ff00;stroke-width:2.16996"
   d="M 245.20518,544.46917 C 158.71353,529.24519 85.678104,475.32509 48.729193,399.41623 1.4634633,302.3122 23.802507,187.21557 104.55152,111.8049 181.24489,40.181741 293.72826,19.055429 392.76227,57.673956 471.24592,88.278819 529.25189,152.0045 551.61048,232.18543 c 5.65979,20.29684 6.04103,24.29463 5.8976,61.84378 -0.1302,34.1049 -0.85794,42.70479 -4.83684,57.16471 -12.25973,44.5538 -31.56756,79.0791 -62.51855,111.79253 -41.62176,43.99183 -93.05113,71.33731 -153.55106,81.64456 -23.72013,4.04113 -67.9633,3.9628 -91.39645,-0.16188 z m 103.46994,-10.82528 c 4.17517,-0.98228 6.78365,-3.77345 9.22232,-9.86825 1.87024,-4.67424 3.40045,-10.14534 3.40045,-12.15799 0,-3.80893 -29.92217,-50.50172 -32.36305,-50.50172 -0.76491,0 -23.42597,-3.90421 -50.35789,-8.67603 -26.93191,-4.77181 -51.36096,-8.87413 -54.28676,-9.11628 -3.71468,-0.30744 -12.65186,5.09255 -29.62246,17.89833 l -24.30283,18.33861 1.26696,13.01975 c 0.80354,8.25751 2.58513,14.10518 4.87078,15.98727 10.67578,8.79082 48.7971,22.04477 75.52785,26.25937 13.26576,2.09158 86.53797,1.19462 96.64463,-1.18306 z m 1.77298,-105.32971 c 8.95108,-11.98949 19.09719,-25.57431 22.54695,-30.18849 l 6.27226,-8.3894 -12.5608,-29.9514 c -6.90845,-16.47325 -13.25907,-30.74535 -14.11251,-31.71575 -0.85345,-0.97041 -20.12482,-6.68488 -42.82526,-12.69885 l -41.27354,-10.93448 -33.34459,24.44355 c -18.33952,13.44395 -35.12991,26.0974 -37.31197,28.11878 -3.81548,3.53454 -3.32835,4.95428 12.72234,37.07934 9.17936,18.37227 17.0166,33.7599 17.41609,34.19471 1.07707,1.17236 96.79384,21.58648 101.85644,21.72355 3.03529,0.0822 9.23224,-6.43546 20.61459,-21.68156 z m 164.89469,-17.33633 c 16.45741,-25.46282 26.35873,-58.86276 29.36202,-99.04649 1.65153,-22.09711 1.51628,-22.29883 -10.96265,-16.34804 -6.64343,3.16803 -11.56192,10.03805 -32.94216,46.01281 -13.82302,23.25884 -25.55869,43.9176 -26.07929,45.90838 -0.96888,3.70498 25.99657,36.72214 29.99135,36.72214 1.13719,0 5.92101,-5.96195 10.63073,-13.2488 z M 84.196019,377.70737 96.742987,355.05764 86.44996,311.73127 76.15693,268.40491 56.96016,262.51621 c -10.558225,-3.2388 -19.881689,-5.20241 -20.718808,-4.36359 -0.837119,0.83882 -1.51555,16.82194 -1.507625,35.51803 0.01558,36.76099 2.159076,48.83361 14.342503,80.78018 6.673,17.49749 12.788083,25.90629 18.839697,25.90629 2.49105,0 7.907709,-7.53593 16.280092,-22.64975 z m 400.530211,-35.86351 26.0404,-43.32357 -18.61897,-31.53996 c -10.24042,-17.34698 -19.70299,-31.53068 -21.02793,-31.51933 -3.98007,0.0341 -60.10067,10.68621 -61.69286,11.70977 -0.81119,0.5215 -10.21459,17.90442 -20.89645,38.62873 l -19.42153,37.68055 11.70499,26.73335 c 6.43776,14.70333 12.73624,27.08869 13.99666,27.52296 1.2604,0.43429 15.96238,2.15357 32.67105,3.8206 16.70867,1.66705 30.565,3.16137 30.79182,3.32073 0.22683,0.15927 12.13061,-19.20588 26.45282,-43.03383 z M 217.16546,320.92965 c 37.10456,-28.88584 37.88911,-29.66477 36.60988,-36.34678 -0.719,-3.75559 -4.9089,-21.88484 -9.3109,-40.28722 l -8.00363,-33.45889 -36.857,-10.41153 -36.85701,-10.41154 -34.32779,34.26492 -34.327784,34.26492 8.370634,44.32481 8.37063,44.32483 16.19234,1.23653 c 8.9058,0.68008 24.29936,1.41244 34.20793,1.62747 l 18.01557,0.39093 z m 215.02528,-98.56329 c 16.44594,-2.41679 30.55068,-5.10211 31.34389,-5.96738 2.29319,-2.50154 21.22331,-72.87939 20.0943,-74.70614 -0.5602,-0.90644 -16.98018,-14.77623 -36.48883,-30.82176 L 411.66983,81.697397 378.70922,94.373272 c -18.12835,6.971728 -33.3698,13.085068 -33.86993,13.585198 -0.50011,0.50012 -3.0895,13.76642 -5.75417,29.48065 l -4.84484,28.57134 30.31691,30.37504 c 16.6743,16.70627 31.98526,30.37504 34.02437,30.37504 2.03913,0 17.16325,-1.97738 33.60918,-4.39418 z M 282.2205,179.79057 c 30.08791,-13.84397 31.42313,-14.73338 33.39059,-22.24207 11.83506,-45.16743 13.3289,-53.0394 10.5492,-55.59032 -1.56015,-1.43175 -14.34059,-12.091351 -28.40096,-23.687998 l -25.56429,-21.084813 -41.71781,10.108956 -41.71781,10.108957 -14.97533,22.676408 -14.97533,22.67641 4.91707,22.16531 c 2.70439,12.19092 5.71822,23.62891 6.6974,25.41776 1.37499,2.51195 68.0658,22.58611 78.70399,23.69017 0.96366,0.10001 15.85564,-6.30744 33.09328,-14.23877 z M 143.92574,125.72615 c 2.07046,-1.64343 8.30862,-31.333007 6.58347,-31.333007 -5.82979,0 -19.88341,9.893977 -30.79599,21.680867 -17.09485,18.46448 -16.47586,20.08139 5.60181,14.63272 9.84619,-2.42999 18.221,-4.67125 18.61071,-4.98058 z"
   id="path911" /><path
   style="fill:#afc6e9;stroke:#00ff00;stroke-width:2.16996"
   d="m 128.07372,346.26749 -15.14347,-1.24428 -8.14464,-42.31417 -8.14463,-42.31416 33.02665,-33.09185 c 18.16466,-18.20052 34.30789,-33.09185 35.87385,-33.09185 4.20097,0 66.39624,17.52608 68.10396,19.1911 0.80301,0.78292 5.31268,17.8302 10.0215,37.88284 7.95526,33.87778 8.31283,36.75145 5.04986,40.58482 -1.9314,2.26901 -18.64708,15.86929 -37.14596,30.22285 l -33.63434,26.09738 -17.35966,-0.3392 c -9.54781,-0.18656 -24.17422,-0.89912 -32.50312,-1.58348 z"
   id="path1122" /><path
   style="fill:#afc6e9;stroke:#00ff00;stroke-width:2.16996"
   d="m 228.9305,186.37924 c -10.14455,-2.79571 -26.993,-7.70305 -37.44099,-10.90521 -21.34664,-6.54244 -18.98448,-3.31706 -26.60478,-36.32712 l -3.44426,-14.92007 14.75789,-22.43105 14.75788,-22.431053 35.82178,-8.693037 c 19.70198,-4.781171 37.91432,-8.967506 40.47187,-9.302966 6.0753,-0.796866 57.15873,40.805636 57.15873,46.550246 0,6.59374 -11.3146,50.26416 -13.88132,53.57707 -2.3956,3.09204 -50.6353,26.75931 -58.81225,28.85435 -2.38696,0.61156 -12.64,-1.17546 -22.78455,-3.97116 z"
   id="path1161" /><path
   style="fill:#afc6e9;stroke:#00ff00;stroke-width:2.16996"
   d="m 111.7528,129.68857 c 0,-2.7549 25.76319,-27.34735 32.30075,-30.832926 4.99533,-2.663321 5.12388,-2.543026 3.6772,3.441216 -5.53079,22.87835 -4.55551,21.55168 -18.06586,24.57478 -6.86796,1.53679 -13.7078,3.26237 -15.19964,3.83463 -1.49185,0.57226 -2.71245,0.1143 -2.71245,-1.0177 z"
   id="path1200" /><path
   style="fill:#afc6e9;stroke:#00ff00;stroke-width:2.16996"
   d="M 62.886459,394.57993 C 57.232954,388.92643 49.871495,371.7894 43.452535,349.33895 38.320688,331.3902 37.910924,326.91311 38.460505,294.796 l 0.598727,-34.98916 17.546884,5.42298 17.546882,5.42297 10.066413,42.06167 10.06641,42.06166 -10.906939,18.99308 c -14.06419,24.49103 -15.427567,25.87559 -20.492423,20.81073 z"
   id="path1239" /><path
   style="fill:#afc6e9;stroke:#00ff00;stroke-width:2.16996"
   d="m 279.45989,437.51082 c -26.51202,-5.62931 -48.6164,-10.67703 -49.12084,-11.21715 -3.45592,-3.7003 -31.86809,-63.81405 -31.0923,-65.78431 0.53413,-1.35652 16.54944,-13.91356 35.58957,-27.90452 l 34.61842,-25.43811 35.61428,9.52792 c 19.58785,5.24036 38.06228,10.47011 41.05427,11.62166 4.36753,1.68097 7.88036,7.92309 17.81848,31.66252 l 12.37848,29.56879 -17.62759,23.3069 c -18.49972,24.46 -27.76458,35.35945 -29.80762,35.06654 -0.67182,-0.0963 -22.91314,-4.78092 -49.42515,-10.41024 z"
   id="path1278" /><path
   style="fill:#afc6e9;stroke:#00ff00;stroke-width:2.16996"
   d="m 229.78402,527.40235 c -24.61804,-6.36445 -52.07519,-18.78893 -53.63509,-24.27011 -0.63268,-2.22313 -1.75775,-7.96728 -2.50016,-12.76478 l -1.34982,-8.72272 24.1915,-17.85926 c 13.30532,-9.82259 25.86353,-17.85925 27.90714,-17.85925 2.0436,0 26.11447,3.91428 53.4908,8.6984 56.53231,9.87924 50.47147,6.61367 69.56574,37.48184 l 12.0493,19.47913 -3.53469,9.25546 c -2.28904,5.99376 -5.22286,9.70807 -8.32509,10.53983 -2.63472,0.7064 -25.78473,1.24969 -51.44448,1.20731 -41.80005,-0.0691 -48.71008,-0.6086 -66.41515,-5.18585 z"
   id="path1317" /><path
   style="fill:#afc6e9;stroke:#00ff00;stroke-width:2.16996"
   d="m 416.6318,378.28606 c -12.98896,-1.3015 -20.35863,-3.05076 -22.00497,-5.2231 -1.36144,-1.79643 -6.97984,-13.72268 -12.48533,-26.50278 l -10.00998,-23.23654 18.41566,-35.65874 c 10.12861,-19.61231 19.24778,-36.49087 20.26483,-37.50791 1.01704,-1.01704 14.88727,-4.26204 30.82274,-7.2111 22.83852,-4.22655 29.35839,-4.78478 30.79094,-2.6363 7.95279,11.92726 34.25934,56.52689 34.25934,58.08263 0,1.07868 -10.92484,20.06789 -24.27742,42.19826 l -24.27742,40.23703 -10.98439,-0.2923 c -6.04141,-0.16076 -19.77271,-1.17288 -30.514,-2.24915 z"
   id="path1356" /><path
   style="fill:#afc6e9;stroke:#00ff00;stroke-width:2.16996"
   d="m 493.62492,409.57944 c -4.99896,-5.66901 -10.90035,-12.84238 -13.11419,-15.94082 l -4.02517,-5.63353 21.76891,-36.68064 c 25.45937,-42.89905 30.31435,-49.64705 38.92213,-54.09831 6.17889,-3.19522 6.3975,-3.13948 6.39159,1.62975 -0.0137,11.08244 -5.05585,45.02707 -8.9528,60.27204 -6.09326,23.83697 -24.45185,60.75881 -30.21101,60.75881 -0.92974,0 -5.78049,-4.63829 -10.77946,-10.3073 z"
   id="path1395" /><path
   style="fill:#afc6e9;stroke:#00ff00;stroke-width:2.16996"
   d="m 367.26597,194.65952 -30.5832,-30.36964 4.67512,-26.66494 c 2.57131,-14.66572 5.42439,-27.29339 6.34018,-28.0615 0.91578,-0.76811 15.25136,-6.58377 31.85684,-12.923699 25.80574,-9.852554 30.81813,-11.135977 34.5033,-8.834554 10.52473,6.572803 66.58733,54.699433 66.58733,57.161533 0,4.5008 -17.40464,67.52677 -19.07341,69.06892 -1.31422,1.21451 -23.44833,5.12177 -55.41662,9.78251 -8.24866,1.20259 -8.5187,1.00012 -38.88954,-29.15863 z"
   id="path1434" /></svg>
