<?xml version="1.0" encoding="UTF-8" standalone="no"?>
<!-- Generator: Adobe Illustrator 16.0.0, SVG Export Plug-In . SVG Version: 6.00 Build 0)  -->

<svg
   version="1.1"
   id="svg2"
   inkscape:output_extension="org.inkscape.output.svg.inkscape"
   sodipodi:docname="sport_soccer.svg"
   inkscape:version="1.1.2 (b8e25be833, 2022-02-05)"
   sodipodi:version="0.32"
   x="0px"
   y="0px"
   width="580px"
   height="580px"
   viewBox="0 0 580 580"
   enable-background="new 0 0 580 580"
   xml:space="preserve"
   xmlns:inkscape="http://www.inkscape.org/namespaces/inkscape"
   xmlns:sodipodi="http://sodipodi.sourceforge.net/DTD/sodipodi-0.dtd"
   xmlns="http://www.w3.org/2000/svg"
   xmlns:svg="http://www.w3.org/2000/svg">
<sodipodi:namedview
   showgrid="false"
   inkscape:cy="49.909018"
   inkscape:cx="-138.87727"
   inkscape:zoom="0.46083856"
   pagecolor="#ffffff"
   bordercolor="#666666"
   guidetolerance="10.0"
   objecttolerance="10.0"
   gridtolerance="10.0"
   borderopacity="1.0"
   id="base"
   inkscape:current-layer="svg2"
   inkscape:window-y="-9"
   inkscape:window-x="-9"
   inkscape:pageopacity="0.0"
   inkscape:pageshadow="2"
   inkscape:window-width="1920"
   inkscape:window-height="1001"
   inkscape:pagecheckerboard="0"
   inkscape:window-maximized="1">
	</sodipodi:namedview>
<defs
   id="defs14">
	
	
		<inkscape:perspective
   inkscape:vp_z="580 : 290 : 1"
   inkscape:vp_y="0 : 1000 : 0"
   inkscape:vp_x="0 : 290 : 1"
   sodipodi:type="inkscape:persp3d"
   id="perspective2441"
   inkscape:persp3d-origin="290 : 193.33333 : 1">
		</inkscape:perspective>
	
		<inkscape:perspective
   inkscape:vp_z="60 : 30 : 1"
   inkscape:vp_y="0 : 1000 : 0"
   inkscape:vp_x="0 : 30 : 1"
   sodipodi:type="inkscape:persp3d"
   id="perspective3452"
   inkscape:persp3d-origin="30 : 20 : 1">
		</inkscape:perspective>
	
		<inkscape:perspective
   inkscape:vp_z="744.09448 : 526.18109 : 1"
   inkscape:vp_y="0 : 1000 : 0"
   inkscape:vp_x="0 : 526.18109 : 1"
   sodipodi:type="inkscape:persp3d"
   id="perspective4471"
   inkscape:persp3d-origin="372.04724 : 350.78739 : 1">
		</inkscape:perspective>
	
		<inkscape:perspective
   inkscape:vp_z="12 : 6 : 1"
   inkscape:vp_y="0 : 1000 : 0"
   inkscape:vp_x="0 : 6 : 1"
   sodipodi:type="inkscape:persp3d"
   id="perspective4668"
   inkscape:persp3d-origin="6 : 4 : 1">
		</inkscape:perspective>
	
		<inkscape:perspective
   inkscape:vp_z="32 : 16 : 1"
   inkscape:vp_y="0 : 1000 : 0"
   inkscape:vp_x="0 : 16 : 1"
   sodipodi:type="inkscape:persp3d"
   id="perspective4904"
   inkscape:persp3d-origin="16 : 10.666667 : 1">
		</inkscape:perspective>
	
		<inkscape:perspective
   inkscape:vp_z="32 : 16 : 1"
   inkscape:vp_y="0 : 1000 : 0"
   inkscape:vp_x="0 : 16 : 1"
   sodipodi:type="inkscape:persp3d"
   id="perspective5233"
   inkscape:persp3d-origin="16 : 10.666667 : 1">
		</inkscape:perspective>
	
		<inkscape:perspective
   inkscape:vp_z="500 : 250 : 1"
   inkscape:vp_y="0 : 1000 : 0"
   inkscape:vp_x="0 : 250 : 1"
   sodipodi:type="inkscape:persp3d"
   id="perspective5412"
   inkscape:persp3d-origin="250 : 166.66667 : 1">
		</inkscape:perspective>
	
		<inkscape:perspective
   inkscape:vp_z="405.71429 : 204.28572 : 1"
   inkscape:vp_y="0 : 1000 : 0"
   inkscape:vp_x="0 : 204.28572 : 1"
   sodipodi:type="inkscape:persp3d"
   id="perspective5571"
   inkscape:persp3d-origin="202.85715 : 136.19048 : 1">
		</inkscape:perspective>
	
		<inkscape:perspective
   inkscape:vp_z="128 : 64 : 1"
   inkscape:vp_y="0 : 1000 : 0"
   inkscape:vp_x="0 : 64 : 1"
   sodipodi:type="inkscape:persp3d"
   id="perspective6552"
   inkscape:persp3d-origin="64 : 42.666667 : 1">
		</inkscape:perspective>
	
		<inkscape:perspective
   inkscape:vp_z="477 : 171.5 : 1"
   inkscape:vp_y="0 : 1000 : 0"
   inkscape:vp_x="0 : 171.5 : 1"
   sodipodi:type="inkscape:persp3d"
   id="perspective8761"
   inkscape:persp3d-origin="238.5 : 114.33333 : 1">
		</inkscape:perspective>
	
		<inkscape:perspective
   inkscape:vp_z="105.66 : 50.309502 : 1"
   inkscape:vp_y="0 : 1000 : 0"
   inkscape:vp_x="0 : 50.309502 : 1"
   sodipodi:type="inkscape:persp3d"
   id="perspective10479"
   inkscape:persp3d-origin="52.830002 : 33.539668 : 1">
		</inkscape:perspective>
</defs>
<g
   id="layer3"
   transform="matrix(48.14969,0,0,48.14969,-536.27327,-33.306752)"
   inkscape:label="Layout"
   display="none">
	<rect
   id="rect4134"
   x="1"
   y="1"
   display="inline"
   fill="none"
   stroke="#757575"
   stroke-width="0.1"
   width="10"
   height="10" />
	<rect
   id="rect4136"
   x="2"
   y="2"
   display="inline"
   fill="none"
   stroke="#757575"
   stroke-width="0.1"
   width="8"
   height="8" />
</g>
<path
   fill="param(fill) #000"
   fill-opacity="255"
   stroke="param(outline) #FFF"
   stroke-opacity="255"
   stroke-width="param(outline-width) 0"
   d="M291.688,37.219c-148.497,0-269.03,114.776-269.03,256.188  c0,141.406,120.529,256.156,269.03,256.156c148.503,0,269.031-114.75,269.031-256.156  C560.719,151.995,440.185,37.219,291.688,37.219z M345.219,108.563L411.25,83.25l72.25,59.25l-20.344,74.094l-66.031,9.875  l-61.781-61.781L345.219,108.563z M190.093,78.313L271.5,58.5l56.125,46.406l-14.844,59.219l-62.344,28.969l-78.875-20.906  l-11.719-48.219L190.093,78.313z M118.406,119.031c3.851-4.951,7.878-9.743,13.563-13.594c5.684-4.401,11.365-7.886,19.25-11.187  c-2.567,10.086-5.147,20.195-7.531,30.281l-36.313,9.344C110.309,128.557,114.005,123.616,118.406,119.031z M70.719,399.407  c-5.868,2.379-11.382-3.855-17.25-16.688c-6.418-13.938-15.035-42.001-17.969-62.906c-2.75-21.094-2.57-41.623,1.281-62.344  l38.344,12.281l20.344,85.094L70.719,399.407z M95.468,259.845l67.313-68.376l72.781,20.344l18.531,78.844l-75.906,58.688  l-66.031-1.844L95.468,259.845z M353.501,531.812c-15.221,2.212-30.647,3.853-46.969,4.22c-16.871,0.367-34.835-0.016-51.156-1.845  c-17.421-2.566-33.567-7.159-47.688-11.75c-14.12-4.945-24.933-10.434-34.469-17.219l-1.281-24.75l48.781-37.062l109.313,19.28  l31.344,48.031L353.501,531.812z M332.219,449.656l-103.063-21.625l-33.938-67.875l73.532-54.281l82.719,21.656l26.406,62.156  L332.219,449.656z M394,377.031l-23.469-53.719l39.438-75.938l62.345-11.186l37.03,62.375l-51.155,84.531L394,377.031z   M522.374,396.656c-6.229,12.465-11.93,21.287-18.531,27.155l-29.688-34.499l51.875-87.656l18.001-9.906  c0.184,21.271-1.484,39.246-4.97,57.406C534.844,367.123,528.604,383.453,522.374,396.656z"
   id="path19" />
<path
   style="fill:#0000ff;stroke:#00ff00;stroke-width:2.16996"
   d="M 245.20518,544.46917 C 158.71353,529.24519 85.678104,475.32509 48.729193,399.41623 1.4634633,302.3122 23.802507,187.21557 104.55152,111.8049 181.24489,40.181741 293.72826,19.055429 392.76227,57.673956 471.24592,88.278819 529.25189,152.0045 551.61048,232.18543 c 5.65979,20.29684 6.04103,24.29463 5.8976,61.84378 -0.1302,34.1049 -0.85794,42.70479 -4.83684,57.16471 -12.25973,44.5538 -31.56756,79.0791 -62.51855,111.79253 -41.62176,43.99183 -93.05113,71.33731 -153.55106,81.64456 -23.72013,4.04113 -67.9633,3.9628 -91.39645,-0.16188 z m 103.46994,-10.82528 c 4.17517,-0.98228 6.78365,-3.77345 9.22232,-9.86825 1.87024,-4.67424 3.40045,-10.14534 3.40045,-12.15799 0,-3.80893 -29.92217,-50.50172 -32.36305,-50.50172 -0.76491,0 -23.42597,-3.90421 -50.35789,-8.67603 -26.93191,-4.77181 -51.36096,-8.87413 -54.28676,-9.11628 -3.71468,-0.30744 -12.65186,5.09255 -29.62246,17.89833 l -24.30283,18.33861 1.26696,13.01975 c 0.80354,8.25751 2.58513,14.10518 4.87078,15.98727 10.67578,8.79082 48.7971,22.04477 75.52785,26.25937 13.26576,2.09158 86.53797,1.19462 96.64463,-1.18306 z m 1.77298,-105.32971 c 8.95108,-11.98949 19.09719,-25.57431 22.54695,-30.18849 l 6.27226,-8.3894 -12.5608,-29.9514 c -6.90845,-16.47325 -13.25907,-30.74535 -14.11251,-31.71575 -0.85345,-0.97041 -20.12482,-6.68488 -42.82526,-12.69885 l -41.27354,-10.93448 -33.34459,24.44355 c -18.33952,13.44395 -35.12991,26.0974 -37.31197,28.11878 -3.81548,3.53454 -3.32835,4.95428 12.72234,37.07934 9.17936,18.37227 17.0166,33.7599 17.41609,34.19471 1.07707,1.17236 96.79384,21.58648 101.85644,21.72355 3.03529,0.0822 9.23224,-6.43546 20.61459,-21.68156 z m 164.89469,-17.33633 c 16.45741,-25.46282 26.35873,-58.86276 29.36202,-99.04649 1.65153,-22.09711 1.51628,-22.29883 -10.96265,-16.34804 -6.64343,3.16803 -11.56192,10.03805 -32.94216,46.01281 -13.82302,23.25884 -25.55869,43.9176 -26.07929,45.90838 -0.96888,3.70498 25.99657,36.72214 29.99135,36.72214 1.13719,0 5.92101,-5.96195 10.63073,-13.2488 z M 84.196019,377.70737 96.742987,355.05764 86.44996,311.73127 76.15693,268.40491 56.96016,262.51621 c -10.558225,-3.2388 -19.881689,-5.20241 -20.718808,-4.36359 -0.837119,0.83882 -1.51555,16.82194 -1.507625,35.51803 0.01558,36.76099 2.159076,48.83361 14.342503,80.78018 6.673,17.49749 12.788083,25.90629 18.839697,25.90629 2.49105,0 7.907709,-7.53593 16.280092,-22.64975 z m 400.530211,-35.86351 26.0404,-43.32357 -18.61897,-31.53996 c -10.24042,-17.34698 -19.70299,-31.53068 -21.02793,-31.51933 -3.98007,0.0341 -60.10067,10.68621 -61.69286,11.70977 -0.81119,0.5215 -10.21459,17.90442 -20.89645,38.62873 l -19.42153,37.68055 11.70499,26.73335 c 6.43776,14.70333 12.73624,27.08869 13.99666,27.52296 1.2604,0.43429 15.96238,2.15357 32.67105,3.8206 16.70867,1.66705 30.565,3.16137 30.79182,3.32073 0.22683,0.15927 12.13061,-19.20588 26.45282,-43.03383 z M 217.16546,320.92965 c 37.10456,-28.88584 37.88911,-29.66477 36.60988,-36.34678 -0.719,-3.75559 -4.9089,-21.88484 -9.3109,-40.28722 l -8.00363,-33.45889 -36.857,-10.41153 -36.85701,-10.41154 -34.32779,34.26492 -34.327784,34.26492 8.370634,44.32481 8.37063,44.32483 16.19234,1.23653 c 8.9058,0.68008 24.29936,1.41244 34.20793,1.62747 l 18.01557,0.39093 z m 215.02528,-98.56329 c 16.44594,-2.41679 30.55068,-5.10211 31.34389,-5.96738 2.29319,-2.50154 21.22331,-72.87939 20.0943,-74.70614 -0.5602,-0.90644 -16.98018,-14.77623 -36.48883,-30.82176 L 411.66983,81.697397 378.70922,94.373272 c -18.12835,6.971728 -33.3698,13.085068 -33.86993,13.585198 -0.50011,0.50012 -3.0895,13.76642 -5.75417,29.48065 l -4.84484,28.57134 30.31691,30.37504 c 16.6743,16.70627 31.98526,30.37504 34.02437,30.37504 2.03913,0 17.16325,-1.97738 33.60918,-4.39418 z M 282.2205,179.79057 c 30.08791,-13.84397 31.42313,-14.73338 33.39059,-22.24207 11.83506,-45.16743 13.3289,-53.0394 10.5492,-55.59032 -1.56015,-1.43175 -14.34059,-12.091351 -28.40096,-23.687998 l -25.56429,-21.084813 -41.71781,10.108956 -41.71781,10.108957 -14.97533,22.676408 -14.97533,22.67641 4.91707,22.16531 c 2.70439,12.19092 5.71822,23.62891 6.6974,25.41776 1.37499,2.51195 68.0658,22.58611 78.70399,23.69017 0.96366,0.10001 15.85564,-6.30744 33.09328,-14.23877 z M 143.92574,125.72615 c 2.07046,-1.64343 8.30862,-31.333007 6.58347,-31.333007 -5.82979,0 -19.88341,9.893977 -30.79599,21.680867 -17.09485,18.46448 -16.47586,20.08139 5.60181,14.63272 9.84619,-2.42999 18.221,-4.67125 18.61071,-4.98058 z"
   id="path892" /><path
   style="fill:#ffaaaa;stroke:#00ff00;stroke-width:2.16996"
   d="m 228.9305,186.37924 c -10.14455,-2.79571 -26.993,-7.70305 -37.44099,-10.90521 -21.34664,-6.54244 -18.98448,-3.31706 -26.60478,-36.32712 l -3.44426,-14.92007 14.75789,-22.43105 14.75788,-22.431053 35.82178,-8.693037 c 19.70198,-4.781171 37.91432,-8.967506 40.47187,-9.302966 6.0753,-0.796866 57.15873,40.805636 57.15873,46.550246 0,6.59374 -11.3146,50.26416 -13.88132,53.57707 -2.3956,3.09204 -50.6353,26.75931 -58.81225,28.85435 -2.38696,0.61156 -12.64,-1.17546 -22.78455,-3.97116 z"
   id="path1085" /><path
   style="fill:#ffaaaa;stroke:#00ff00;stroke-width:2.16996"
   d="m 111.7528,129.68857 c 0,-2.7549 25.76319,-27.34735 32.30075,-30.832926 4.99533,-2.663321 5.12388,-2.543026 3.6772,3.441216 -5.53079,22.87835 -4.55551,21.55168 -18.06586,24.57478 -6.86796,1.53679 -13.7078,3.26237 -15.19964,3.83463 -1.49185,0.57226 -2.71245,0.1143 -2.71245,-1.0177 z"
   id="path1124" /><path
   style="fill:#ffaaaa;stroke:#00ff00;stroke-width:2.16996"
   d="m 128.07372,346.26749 -15.14347,-1.24428 -8.14464,-42.31417 -8.14463,-42.31416 33.02665,-33.09185 c 18.16466,-18.20052 34.30789,-33.09185 35.87385,-33.09185 4.20097,0 66.39624,17.52608 68.10396,19.1911 0.80301,0.78292 5.31268,17.8302 10.0215,37.88284 7.95526,33.87778 8.31283,36.75145 5.04986,40.58482 -1.9314,2.26901 -18.64708,15.86929 -37.14596,30.22285 l -33.63434,26.09738 -17.35966,-0.3392 c -9.54781,-0.18656 -24.17422,-0.89912 -32.50312,-1.58348 z"
   id="path1163" /><path
   style="fill:#ffaaaa;stroke:#00ff00;stroke-width:2.16996"
   d="M 62.886459,394.57993 C 57.232954,388.92643 49.871495,371.7894 43.452535,349.33895 38.320688,331.3902 37.910924,326.91311 38.460505,294.796 l 0.598727,-34.98916 17.546884,5.42298 17.546882,5.42297 10.066413,42.06167 10.06641,42.06166 -10.906939,18.99308 c -14.06419,24.49103 -15.427567,25.87559 -20.492423,20.81073 z"
   id="path1202" /><path
   style="fill:#ffaaaa;stroke:#00ff00;stroke-width:2.16996"
   d="m 279.45989,437.51082 c -26.51202,-5.62931 -48.6164,-10.67703 -49.12084,-11.21715 -3.45592,-3.7003 -31.86809,-63.81405 -31.0923,-65.78431 0.53413,-1.35652 16.54944,-13.91356 35.58957,-27.90452 l 34.61842,-25.43811 35.61428,9.52792 c 19.58785,5.24036 38.06228,10.47011 41.05427,11.62166 4.36753,1.68097 7.88036,7.92309 17.81848,31.66252 l 12.37848,29.56879 -17.62759,23.3069 c -18.49972,24.46 -27.76458,35.35945 -29.80762,35.06654 -0.67182,-0.0963 -22.91314,-4.78092 -49.42515,-10.41024 z"
   id="path1241" /><path
   style="fill:#ffaaaa;stroke:#00ff00;stroke-width:2.16996"
   d="m 229.78402,527.40235 c -24.61804,-6.36445 -52.07519,-18.78893 -53.63509,-24.27011 -0.63268,-2.22313 -1.75775,-7.96728 -2.50016,-12.76478 l -1.34982,-8.72272 24.1915,-17.85926 c 13.30532,-9.82259 25.86353,-17.85925 27.90714,-17.85925 2.0436,0 26.11447,3.91428 53.4908,8.6984 56.53231,9.87924 50.47147,6.61367 69.56574,37.48184 l 12.0493,19.47913 -3.53469,9.25546 c -2.28904,5.99376 -5.22286,9.70807 -8.32509,10.53983 -2.63472,0.7064 -25.78473,1.24969 -51.44448,1.20731 -41.80005,-0.0691 -48.71008,-0.6086 -66.41515,-5.18585 z"
   id="path1280" /><path
   style="fill:#ffaaaa;stroke:#00ff00;stroke-width:2.16996"
   d="m 416.6318,378.28606 c -12.98896,-1.3015 -20.35863,-3.05076 -22.00497,-5.2231 -1.36144,-1.79643 -6.97984,-13.72268 -12.48533,-26.50278 l -10.00998,-23.23654 18.41566,-35.65874 c 10.12861,-19.61231 19.24778,-36.49087 20.26483,-37.50791 1.01704,-1.01704 14.88727,-4.26204 30.82274,-7.2111 22.83852,-4.22655 29.35839,-4.78478 30.79094,-2.6363 7.95279,11.92726 34.25934,56.52689 34.25934,58.08263 0,1.07868 -10.92484,20.06789 -24.27742,42.19826 l -24.27742,40.23703 -10.98439,-0.2923 c -6.04141,-0.16076 -19.77271,-1.17288 -30.514,-2.24915 z"
   id="path1319" /><path
   style="fill:#ffaaaa;stroke:#00ff00;stroke-width:2.16996"
   d="m 493.62492,409.57944 c -4.99896,-5.66901 -10.90035,-12.84238 -13.11419,-15.94082 l -4.02517,-5.63353 21.76891,-36.68064 c 25.45937,-42.89905 30.31435,-49.64705 38.92213,-54.09831 6.17889,-3.19522 6.3975,-3.13948 6.39159,1.62975 -0.0137,11.08244 -5.05585,45.02707 -8.9528,60.27204 -6.09326,23.83697 -24.45185,60.75881 -30.21101,60.75881 -0.92974,0 -5.78049,-4.63829 -10.77946,-10.3073 z"
   id="path1358" /><path
   style="fill:#ff5555;stroke:#00ff00;stroke-width:2.16996"
   d="m 367.26597,194.65952 -30.5832,-30.36964 4.67512,-26.66494 c 2.57131,-14.66572 5.42439,-27.29339 6.34018,-28.0615 0.91578,-0.76811 15.25136,-6.58377 31.85684,-12.923699 25.80574,-9.852554 30.81813,-11.135977 34.5033,-8.834554 10.52473,6.572803 66.58733,54.699433 66.58733,57.161533 0,4.5008 -17.40464,67.52677 -19.07341,69.06892 -1.31422,1.21451 -23.44833,5.12177 -55.41662,9.78251 -8.24866,1.20259 -8.5187,1.00012 -38.88954,-29.15863 z"
   id="path1397" /><path
   style="fill:#ff5555;stroke:#00ff00;stroke-width:2.16996"
   d="m 210.48586,178.70423 c -16.70867,-4.83253 -32.02176,-10.24694 -34.02908,-12.03203 -2.00732,-1.7851 -5.65789,-11.96776 -8.11238,-22.62815 l -4.46271,-19.38252 14.40205,-21.63105 c 16.26202,-24.424633 11.03734,-21.558616 59.44892,-32.61095 l 30.49642,-6.962313 12.32562,8.415601 c 6.77909,4.628582 19.02366,14.771911 27.21015,22.540731 l 14.88454,14.125131 -4.48935,18.90255 c -7.92489,33.36802 -7.31605,32.60233 -37.61265,47.30273 -15.09237,7.32306 -29.48731,12.89572 -33.17226,12.84185 -3.58043,-0.0523 -20.1806,-4.04905 -36.88927,-8.88158 z"
   id="path1473" /><path
   style="fill:#ff5555;stroke:#00ff00;stroke-width:2.16996"
   d="m 129.57633,114.76687 c 6.81925,-6.91595 13.01517,-11.95792 13.76873,-11.20437 2.66067,2.66068 -1.6514,14.88607 -6.28383,17.81563 -2.58161,1.63262 -8.11152,3.64223 -12.28868,4.4658 l -7.59486,1.4974 z"
   id="path1512" /><path
   style="fill:#ff5555;stroke:#00ff00;stroke-width:2.16996"
   d=""
   id="path1551" /><path
   style="fill:#ff5555;stroke:#00ff00;stroke-width:2.16996"
   d="m 129.03164,344.50958 -14.18555,-0.74859 -7.85073,-40.59808 -7.850732,-40.59808 33.186362,-33.38353 33.18637,-33.38354 33.33403,9.514 33.33404,9.51401 7.05914,28.20945 c 3.88252,15.51519 7.3002,32.54022 7.59485,37.83339 l 0.53571,9.62395 -34.71931,27.67533 -34.71932,27.67534 -17.35966,-0.29253 c -9.54781,-0.16089 -23.74315,-0.62939 -31.5452,-1.04112 z"
   id="path1590" /><path
   style="fill:#ff5555;stroke:#00ff00;stroke-width:2.16996"
   d="m 58.878378,383.53995 c -2.86466,-5.66901 -7.931886,-18.60738 -11.260504,-28.75193 -5.402899,-16.46629 -6.15174,-22.34314 -6.981645,-54.79142 -0.59586,-23.29744 -0.154057,-36.34679 1.230569,-36.34679 1.1881,0 8.516723,1.96334 16.285829,4.36297 l 14.125648,4.36297 9.817151,40.66364 9.81715,40.66365 -6.674683,11.93477 c -10.829964,19.36467 -16.801274,28.20944 -19.044862,28.20944 -1.158399,0 -4.449992,-4.63828 -7.314653,-10.3073 z"
   id="path1629" /><path
   style="fill:#ff5555;stroke:#00ff00;stroke-width:2.16996"
   d="m 284.26441,436.33195 c -22.67606,-5.0211 -44.00377,-9.83989 -47.39491,-10.70841 -5.31604,-1.36151 -7.91847,-5.27087 -18.88445,-28.36807 -6.99529,-14.73392 -13.32292,-29.19626 -14.06138,-32.13854 -1.22015,-4.86145 1.73645,-7.64313 32.40121,-30.4844 l 33.74388,-25.1348 20.11757,5.45173 c 45.06324,12.21183 56.58275,16.04023 59.31546,19.71296 1.57592,2.118 7.66853,15.22964 13.53913,29.13695 l 10.67382,25.28604 -16.20224,21.36805 c -16.49918,21.75966 -28.65377,35.65879 -30.81711,35.24027 -0.66099,-0.12788 -19.75493,-4.34068 -42.43098,-9.36178 z"
   id="path1668" /><path
   style="fill:#ff5555;stroke:#00ff00;stroke-width:2.16996"
   d="m 240.02544,527.20275 c -29.18108,-6.33075 -59.78933,-19.43066 -61.76462,-26.4344 -4.86166,-17.23793 -5.01473,-16.86301 12.00754,-29.41045 8.73267,-6.43701 19.92845,-14.36835 24.87951,-17.6252 l 9.00193,-5.92154 39.80205,6.78733 c 68.21002,11.63166 64.12777,9.62448 82.79729,40.71013 l 10.40576,17.32608 -3.67467,7.70589 c -2.02108,4.23823 -5.72719,8.25687 -8.23581,8.93029 -9.54692,2.56284 -91.27775,0.95638 -105.21898,-2.06813 z"
   id="path1707" /><path
   style="fill:#ff5555;stroke:#00ff00;stroke-width:2.16996"
   d="m 419.49418,376.39622 c -7.9735,-0.93002 -16.38873,-2.29128 -18.70051,-3.02501 -4.0756,-1.29355 -24.29991,-40.96022 -24.89211,-48.82179 -0.24767,-3.28792 29.64075,-61.98416 35.71683,-70.14232 1.91301,-2.56855 10.14673,-5.23127 25.16246,-8.13734 35.45785,-6.86235 31.68405,-8.62893 50.93947,23.84562 l 16.7002,28.16513 -14.27196,24.45633 c -7.84959,13.45098 -18.67067,31.53581 -24.04686,40.18852 l -9.77489,15.73219 -11.16767,-0.28519 c -6.14222,-0.15684 -17.69145,-1.04611 -25.66496,-1.97614 z"
   id="path1746" /><path
   style="fill:#ff2a2a;stroke:#00ff00;stroke-width:2.16996"
   d="m 491.7534,403.2737 c -6.10932,-6.8545 -11.10786,-13.69587 -11.10786,-15.20305 0,-1.50718 9.52069,-18.5283 21.15709,-37.82472 21.17584,-35.1155 35.60074,-54.32895 38.59253,-51.40384 2.55107,2.49422 -5.1297,50.23955 -11.02303,68.52152 -5.85762,18.17119 -20.11662,46.39269 -24.0565,47.61277 -1.34991,0.41803 -7.45291,-4.84817 -13.56223,-11.70268 z"
   id="path1785" /><path
   style="fill:#ff2a2a;stroke:#00ff00;stroke-width:2.16996"
   d="m 130.97342,342.33442 -14.41373,-0.75379 -7.48524,-38.42292 -7.48524,-38.42292 32.74875,-33.06909 32.74875,-33.06909 31.67437,8.96525 31.67437,8.96525 6.84237,28.6105 c 10.91464,45.63813 12.69294,40.90202 -27.11638,72.21865 l -33.79069,26.58197 -15.4918,-0.425 c -8.5205,-0.23376 -21.97799,-0.76422 -29.90553,-1.17881 z"
   id="path1861" /><path
   style="fill:#ff2a2a;stroke:#00ff00;stroke-width:2.16996"
   d="M 216.49446,177.96697 C 176.18277,166.6192 176.50685,166.8881 169.3822,138.87727 l -3.31161,-13.01975 13.36299,-19.91285 c 15.72955,-23.439365 16.42916,-23.837174 58.74285,-33.402086 l 29.86052,-6.749903 12.66737,9.417827 c 6.96705,5.179805 18.69878,15.003822 26.07051,21.831152 l 13.40314,12.41332 -4.65776,19.05106 c -7.12688,29.15014 -7.52559,29.63818 -35.18468,43.06861 -13.35431,6.48446 -27.21001,12.25649 -30.79044,12.82674 -3.79705,0.60475 -17.57007,-2.07663 -33.05063,-6.43442 z"
   id="path1900" /><path
   style="fill:#ff2a2a;stroke:#00ff00;stroke-width:2.16996"
   d="m 369.38258,192.43659 -30.21598,-30.00499 4.80521,-25.4145 4.80522,-25.4145 7.8879,-3.38449 c 17.89073,-7.67643 48.56752,-18.162114 53.02217,-18.12359 4.58318,0.03964 24.27924,15.38972 55.12163,42.95894 l 14.17637,12.67189 -9.47708,33.46523 -9.47707,33.46524 -20.6146,3.5752 c -11.33802,1.96637 -24.93531,4.16816 -30.21619,4.89288 l -9.6016,1.31767 z"
   id="path1939" /><path
   style="fill:#ff2a2a;stroke:#00ff00;stroke-width:2.16996"
   d="m 283.36674,433.79831 c -23.16978,-5.22756 -44.01701,-10.10457 -46.32718,-10.83779 -4.65819,-1.47845 -29.78115,-50.88108 -29.79847,-58.5967 -0.0126,-5.59627 60.93644,-52.29731 66.77726,-51.16684 9.13199,1.76748 52.52246,14.26245 62.64954,18.04093 l 11.17429,4.1692 11.06777,25.14585 c 6.08727,13.83022 11.06777,26.29132 11.06777,27.69132 0,2.77931 -33.63755,45.71239 -40.34017,51.48792 -3.8765,3.34032 -6.86281,2.95735 -46.27081,-5.93389 z"
   id="path1978" /><path
   style="fill:#ff2a2a;stroke:#00ff00;stroke-width:2.16996"
   d="m 418.98892,374.06132 c -8.2514,-1.08462 -16.45825,-3.1795 -18.23745,-4.65529 -3.8039,-3.15522 -22.09392,-40.01143 -22.09392,-44.52146 0,-1.70169 7.50319,-17.76523 16.67375,-35.69677 18.8789,-36.91458 17.40031,-35.64827 48.91196,-41.88972 16.92842,-3.35297 19.45412,-3.40474 23.86953,-0.48922 5.22747,3.45172 32.08623,46.98901 32.02829,51.91695 -0.0187,1.59404 -10.02767,19.49843 -22.24206,39.78753 l -22.20799,36.88927 -10.84978,0.31538 c -5.96738,0.17347 -17.60093,-0.57204 -25.85233,-1.65667 z"
   id="path2017" /><path
   style="fill:#ff2a2a;stroke:#00ff00;stroke-width:2.16996"
   d="m 492.73787,400.07402 -10.00942,-11.13288 7.65121,-13.91968 c 12.87862,-23.42976 34.36479,-57.09436 41.78141,-65.46321 l 7.0314,-7.93418 -1.23148,9.7648 c -2.1765,17.25822 -7.57561,44.17362 -11.09974,55.33391 -4.39356,13.91365 -19.6288,44.48413 -22.16931,44.48413 -1.06955,0 -6.44889,-5.0098 -11.95407,-11.13289 z"
   id="path2056" /><path
   style="fill:#ff2a2a;stroke:#00ff00;stroke-width:2.16996"
   d="m 251.71505,526.07911 c -17.74406,-1.75208 -50.72873,-12.00143 -63.27932,-19.66283 -8.02361,-4.89793 -12.60162,-15.47518 -9.33761,-21.57403 1.19357,-2.2302 11.83474,-10.95505 23.64705,-19.38855 l 21.47692,-15.33363 33.27609,5.6043 c 41.00459,6.90593 58.69759,10.90934 66.85378,15.12707 7.33887,3.79507 31.38374,41.10071 29.09949,45.14787 -0.81346,1.44127 -3.45693,4.81757 -5.87437,7.50289 -4.25399,4.72538 -5.58707,4.8729 -41.44886,4.58672 -20.37943,-0.16263 -44.86536,-1.06704 -54.41317,-2.00981 z"
   id="path2095" /><path
   style="fill:#ff2a2a;stroke:#00ff00;stroke-width:2.16996"
   d="m 59.866433,379.66755 c -12.187612,-25.92804 -15.583336,-41.75194 -16.94242,-78.95087 -1.228287,-33.61892 -1.082968,-35.54279 2.57858,-34.13772 2.134121,0.81894 8.165259,2.56797 13.402527,3.88673 5.237269,1.31876 10.137121,3.39253 10.888562,4.60839 0.751441,1.21586 5.496237,19.28093 10.543992,40.14461 l 9.177735,37.93395 -6.910592,12.20997 c -9.666387,17.07903 -14.474954,24.14473 -16.431715,24.14473 -0.924782,0 -3.762782,-4.42791 -6.306669,-9.83979 z"
   id="path2134" /><path
   style="fill:#ff2a2a;stroke:#00ff00;stroke-width:2.16996"
   d="m 133.45237,115.00774 c 8.03975,-8.29491 8.67983,-8.68769 8.67983,-5.32626 0,3.16542 -10.07707,12.92111 -13.34678,12.92111 -1.48185,0 0.61828,-3.41768 4.66695,-7.59485 z"
   id="path2173" /><path
   style="fill:#ff2a2a;stroke:#00ff00;stroke-width:2.16996"
   d="m 232.18543,179.68576 c -12.42647,-2.86973 -35.71737,-9.95822 -43.00623,-13.08878 -9.3444,-4.01341 -12.65369,-9.24192 -17.43271,-27.54279 l -3.32214,-12.72187 8.85274,-13.25714 c 18.13276,-27.154146 21.01019,-28.881146 65.52867,-39.32959 l 23.64008,-5.548303 8.46696,5.867609 c 18.82978,13.049048 43.16287,35.880834 42.10163,39.504044 -0.58136,1.98481 -2.65195,9.91258 -4.60131,17.61725 -5.86197,23.16887 -7.20367,24.67812 -33.75396,37.96922 -23.81537,11.922 -32.21053,13.82423 -46.47373,10.53035 z"
   id="path2212" /></svg>
