<?xml version="1.0" encoding="UTF-8" standalone="no"?>
<!-- Generator: Adobe Illustrator 16.0.0, SVG Export Plug-In . SVG Version: 6.00 Build 0)  -->

<svg
   version="1.1"
   id="svg2"
   inkscape:output_extension="org.inkscape.output.svg.inkscape"
   sodipodi:docname="sport_soccer.svg"
   inkscape:version="1.1.2 (b8e25be833, 2022-02-05)"
   sodipodi:version="0.32"
   x="0px"
   y="0px"
   width="580px"
   height="580px"
   viewBox="0 0 580 580"
   enable-background="new 0 0 580 580"
   xml:space="preserve"
   xmlns:inkscape="http://www.inkscape.org/namespaces/inkscape"
   xmlns:sodipodi="http://sodipodi.sourceforge.net/DTD/sodipodi-0.dtd"
   xmlns="http://www.w3.org/2000/svg"
   xmlns:svg="http://www.w3.org/2000/svg">
<sodipodi:namedview
   showgrid="false"
   inkscape:cy="55.333911"
   inkscape:cx="-138.87727"
   inkscape:zoom="0.46083856"
   pagecolor="#ffffff"
   bordercolor="#666666"
   guidetolerance="10.0"
   objecttolerance="10.0"
   gridtolerance="10.0"
   borderopacity="1.0"
   id="base"
   inkscape:current-layer="svg2"
   inkscape:window-y="-9"
   inkscape:window-x="-9"
   inkscape:pageopacity="0.0"
   inkscape:pageshadow="2"
   inkscape:window-width="1920"
   inkscape:window-height="1001"
   inkscape:pagecheckerboard="0"
   inkscape:window-maximized="1">
	</sodipodi:namedview>
<defs
   id="defs14">
	
	
		<inkscape:perspective
   inkscape:vp_z="580 : 290 : 1"
   inkscape:vp_y="0 : 1000 : 0"
   inkscape:vp_x="0 : 290 : 1"
   sodipodi:type="inkscape:persp3d"
   id="perspective2441"
   inkscape:persp3d-origin="290 : 193.33333 : 1">
		</inkscape:perspective>
	
		<inkscape:perspective
   inkscape:vp_z="60 : 30 : 1"
   inkscape:vp_y="0 : 1000 : 0"
   inkscape:vp_x="0 : 30 : 1"
   sodipodi:type="inkscape:persp3d"
   id="perspective3452"
   inkscape:persp3d-origin="30 : 20 : 1">
		</inkscape:perspective>
	
		<inkscape:perspective
   inkscape:vp_z="744.09448 : 526.18109 : 1"
   inkscape:vp_y="0 : 1000 : 0"
   inkscape:vp_x="0 : 526.18109 : 1"
   sodipodi:type="inkscape:persp3d"
   id="perspective4471"
   inkscape:persp3d-origin="372.04724 : 350.78739 : 1">
		</inkscape:perspective>
	
		<inkscape:perspective
   inkscape:vp_z="12 : 6 : 1"
   inkscape:vp_y="0 : 1000 : 0"
   inkscape:vp_x="0 : 6 : 1"
   sodipodi:type="inkscape:persp3d"
   id="perspective4668"
   inkscape:persp3d-origin="6 : 4 : 1">
		</inkscape:perspective>
	
		<inkscape:perspective
   inkscape:vp_z="32 : 16 : 1"
   inkscape:vp_y="0 : 1000 : 0"
   inkscape:vp_x="0 : 16 : 1"
   sodipodi:type="inkscape:persp3d"
   id="perspective4904"
   inkscape:persp3d-origin="16 : 10.666667 : 1">
		</inkscape:perspective>
	
		<inkscape:perspective
   inkscape:vp_z="32 : 16 : 1"
   inkscape:vp_y="0 : 1000 : 0"
   inkscape:vp_x="0 : 16 : 1"
   sodipodi:type="inkscape:persp3d"
   id="perspective5233"
   inkscape:persp3d-origin="16 : 10.666667 : 1">
		</inkscape:perspective>
	
		<inkscape:perspective
   inkscape:vp_z="500 : 250 : 1"
   inkscape:vp_y="0 : 1000 : 0"
   inkscape:vp_x="0 : 250 : 1"
   sodipodi:type="inkscape:persp3d"
   id="perspective5412"
   inkscape:persp3d-origin="250 : 166.66667 : 1">
		</inkscape:perspective>
	
		<inkscape:perspective
   inkscape:vp_z="405.71429 : 204.28572 : 1"
   inkscape:vp_y="0 : 1000 : 0"
   inkscape:vp_x="0 : 204.28572 : 1"
   sodipodi:type="inkscape:persp3d"
   id="perspective5571"
   inkscape:persp3d-origin="202.85715 : 136.19048 : 1">
		</inkscape:perspective>
	
		<inkscape:perspective
   inkscape:vp_z="128 : 64 : 1"
   inkscape:vp_y="0 : 1000 : 0"
   inkscape:vp_x="0 : 64 : 1"
   sodipodi:type="inkscape:persp3d"
   id="perspective6552"
   inkscape:persp3d-origin="64 : 42.666667 : 1">
		</inkscape:perspective>
	
		<inkscape:perspective
   inkscape:vp_z="477 : 171.5 : 1"
   inkscape:vp_y="0 : 1000 : 0"
   inkscape:vp_x="0 : 171.5 : 1"
   sodipodi:type="inkscape:persp3d"
   id="perspective8761"
   inkscape:persp3d-origin="238.5 : 114.33333 : 1">
		</inkscape:perspective>
	
		<inkscape:perspective
   inkscape:vp_z="105.66 : 50.309502 : 1"
   inkscape:vp_y="0 : 1000 : 0"
   inkscape:vp_x="0 : 50.309502 : 1"
   sodipodi:type="inkscape:persp3d"
   id="perspective10479"
   inkscape:persp3d-origin="52.830002 : 33.539668 : 1">
		</inkscape:perspective>
</defs>
<g
   id="layer3"
   transform="matrix(48.14969,0,0,48.14969,-536.27327,-33.306752)"
   inkscape:label="Layout"
   display="none">
	<rect
   id="rect4134"
   x="1"
   y="1"
   display="inline"
   fill="none"
   stroke="#757575"
   stroke-width="0.1"
   width="10"
   height="10" />
	<rect
   id="rect4136"
   x="2"
   y="2"
   display="inline"
   fill="none"
   stroke="#757575"
   stroke-width="0.1"
   width="8"
   height="8" />
</g>
<path
   fill="param(fill) #000"
   fill-opacity="255"
   stroke="param(outline) #FFF"
   stroke-opacity="255"
   stroke-width="param(outline-width) 0"
   d="M291.688,37.219c-148.497,0-269.03,114.776-269.03,256.188  c0,141.406,120.529,256.156,269.03,256.156c148.503,0,269.031-114.75,269.031-256.156  C560.719,151.995,440.185,37.219,291.688,37.219z M345.219,108.563L411.25,83.25l72.25,59.25l-20.344,74.094l-66.031,9.875  l-61.781-61.781L345.219,108.563z M190.093,78.313L271.5,58.5l56.125,46.406l-14.844,59.219l-62.344,28.969l-78.875-20.906  l-11.719-48.219L190.093,78.313z M118.406,119.031c3.851-4.951,7.878-9.743,13.563-13.594c5.684-4.401,11.365-7.886,19.25-11.187  c-2.567,10.086-5.147,20.195-7.531,30.281l-36.313,9.344C110.309,128.557,114.005,123.616,118.406,119.031z M70.719,399.407  c-5.868,2.379-11.382-3.855-17.25-16.688c-6.418-13.938-15.035-42.001-17.969-62.906c-2.75-21.094-2.57-41.623,1.281-62.344  l38.344,12.281l20.344,85.094L70.719,399.407z M95.468,259.845l67.313-68.376l72.781,20.344l18.531,78.844l-75.906,58.688  l-66.031-1.844L95.468,259.845z M353.501,531.812c-15.221,2.212-30.647,3.853-46.969,4.22c-16.871,0.367-34.835-0.016-51.156-1.845  c-17.421-2.566-33.567-7.159-47.688-11.75c-14.12-4.945-24.933-10.434-34.469-17.219l-1.281-24.75l48.781-37.062l109.313,19.28  l31.344,48.031L353.501,531.812z M332.219,449.656l-103.063-21.625l-33.938-67.875l73.532-54.281l82.719,21.656l26.406,62.156  L332.219,449.656z M394,377.031l-23.469-53.719l39.438-75.938l62.345-11.186l37.03,62.375l-51.155,84.531L394,377.031z   M522.374,396.656c-6.229,12.465-11.93,21.287-18.531,27.155l-29.688-34.499l51.875-87.656l18.001-9.906  c0.184,21.271-1.484,39.246-4.97,57.406C534.844,367.123,528.604,383.453,522.374,396.656z"
   id="path19"
   style="fill:#ffff00" />
<path
   style="fill:#e6e6e6;stroke:#00ff00;stroke-width:2.16996"
   d="m 125.85752,346.68302 -13.01974,-0.75892 -8.08617,-42.76461 -8.086167,-42.76461 33.014417,-33.09185 c 18.15794,-18.20052 34.00272,-33.13361 35.21064,-33.18465 1.20792,-0.0511 17.43548,4.09214 36.06125,9.20708 l 33.86504,9.29989 9.02382,38.84761 c 8.51394,36.65257 8.80743,39.00353 5.19419,41.60726 -2.10629,1.51782 -18.96508,14.53867 -37.46396,28.93524 l -33.63434,26.17558 -19.52962,-0.37455 c -10.74129,-0.20602 -25.3885,-0.71607 -32.54936,-1.13347 z"
   id="path1128" /><path
   style="fill:#e6e6e6;stroke:#00ff00;stroke-width:2.16996"
   d="m 210.05919,181.51141 -37.31594,-10.08478 -5.77896,-23.28605 -5.77896,-23.28605 14.72788,-22.6987 14.72787,-22.698694 40.04723,-9.867791 40.04724,-9.867791 19.78417,16.085111 c 10.8813,8.846811 23.44331,19.33324 27.91558,23.303177 l 8.13141,7.218068 -6.51945,26.03949 c -3.58569,14.32171 -7.24483,27.29328 -8.13141,28.82569 -1.53258,2.649 -60.16399,31.09283 -63.12875,30.62562 -0.77658,-0.12239 -18.20414,-4.76066 -38.72791,-10.3073 z"
   id="path1167" /><path
   style="fill:#e6e6e6;stroke:#00ff00;stroke-width:2.16996"
   d="m 366.85287,194.45988 -30.24932,-30.42569 4.68299,-26.50536 c 2.57565,-14.57794 5.44655,-27.18345 6.37979,-28.01223 3.61269,-3.20833 61.60221,-24.177544 64.12615,-23.188248 4.04612,1.585931 69.96951,56.139858 69.72451,57.699488 -0.11744,0.74761 -4.47953,17.13763 -9.69352,36.42225 l -9.47999,35.06295 -21.77086,3.34878 c -11.97397,1.84184 -26.65326,3.95065 -32.62065,4.68626 l -10.84978,1.33748 z"
   id="path1206" /><path
   style="fill:#e6e6e6;stroke:#00ff00;stroke-width:2.16996"
   d="m 111.7528,129.55034 c 0,-3.04427 22.64549,-25.24697 29.89708,-29.3125 8.06634,-4.522307 8.32972,-3.731399 4.13942,12.43012 l -2.76907,10.67996 -14.00625,3.95878 c -15.84604,4.47878 -17.26118,4.66272 -17.26118,2.24364 z"
   id="path1245" /><path
   style="fill:#ffff00;stroke:#00ff00;stroke-width:2.16996"
   d="M 244.3301,544.4167 C 222.67774,540.78817 186.95437,529.17664 167.79957,519.54123 72.66525,471.68585 15.459111,372.45798 25.000693,271.84707 34.444707,172.26494 104.65001,85.762745 202.40817,53.257643 345.72619,5.6036457 500.06189,78.748018 547.08132,216.60873 c 15.44381,45.28112 15.69969,104.77406 0.65158,151.49588 -24.90675,77.33125 -91.53663,141.97985 -172.58938,167.45734 -38.5155,12.10667 -90.43633,15.62118 -130.81342,8.85475 z m 104.27673,-10.75977 c 4.22996,-0.99736 6.67214,-3.76182 9.22232,-10.43936 1.9078,-4.99553 3.46874,-10.4725 3.46874,-12.17103 0,-3.35782 -30.12632,-49.9277 -32.30333,-49.93517 -0.73206,-0.003 -23.30182,-3.83338 -50.15505,-8.51305 -26.85322,-4.67966 -51.06376,-8.82766 -53.8012,-9.21776 -3.50589,-0.49961 -12.32809,4.74305 -29.84454,17.73537 l -24.86736,18.44463 1.2862,13.01975 c 0.81373,8.23705 2.61004,14.10984 4.89003,15.98727 10.77167,8.86978 48.74938,21.87451 77.38236,26.49811 11.75879,1.89877 85.33499,0.80451 94.72183,-1.40876 z m 8.07135,-114.25374 22.50478,-29.77798 -12.60769,-29.89585 c -6.93423,-16.44272 -13.27441,-30.69836 -14.08931,-31.67921 -0.81491,-0.98084 -20.10861,-6.63022 -42.87487,-12.55416 l -41.39324,-10.77082 -37.00333,27.38267 c -20.35184,15.06046 -37.00334,27.80154 -37.00334,28.31348 0,1.02094 32.61498,66.59609 33.72802,67.81301 1.3839,1.51306 97.68626,21.64567 101.89431,21.30164 2.83624,-0.23188 12.1372,-10.67207 26.84467,-30.13278 z m 157.53741,-6.58513 c 16.55555,-24.93448 27.52558,-61.23348 30.48922,-100.8867 1.67768,-22.44708 1.30011,-22.95159 -11.68485,-15.61251 -6.43709,3.63821 -12.58621,12.39434 -33.38729,47.54226 -14.02335,23.6955 -25.497,43.97729 -25.497,45.07065 0,2.79562 28.10166,35.29489 30.51898,35.29489 1.09233,0 5.39475,-5.13386 9.56094,-11.40859 z M 84.10937,377.8638 96.569688,355.37048 86.322221,311.87186 76.074754,268.37325 56.82365,262.5958 c -10.588109,-3.17762 -19.893082,-5.13833 -20.677719,-4.35714 -0.784638,0.78118 -1.744446,14.4196 -2.132907,30.30759 -0.61216,25.03727 0.02824,31.93529 4.805071,51.75722 9.0822,37.68753 20.028665,60.05365 29.391555,60.05365 2.116653,0 8.231473,-8.65062 15.89972,-22.49332 z m 401.36498,-37.23391 25.44342,-42.21317 -18.61838,-30.9457 c -10.2401,-17.02012 -18.90574,-31.25396 -19.25696,-31.63076 -1.14225,-1.22542 -62.5492,10.29059 -64.11035,12.02299 -0.83355,0.92501 -10.09887,18.28201 -20.5896,38.57111 l -19.07403,36.88928 11.66714,26.82764 c 6.41694,14.75521 12.67954,27.1814 13.91687,27.61377 3.66558,1.28086 40.33871,4.63034 53.24372,4.86294 l 11.93477,0.21504 25.4434,-42.2132 z M 216.9194,320.9989 c 20.92782,-16.19706 38.0204,-30.11191 37.98351,-30.92189 -0.0369,-0.80998 -4.18693,-18.96714 -9.22232,-40.34927 l -9.15524,-38.87659 -36.88928,-10.38005 -36.88927,-10.38005 -34.32779,34.22624 -34.327784,34.22624 8.370634,44.32481 8.37063,44.32483 16.19234,1.23653 c 8.9058,0.68008 24.21397,1.41244 34.01817,1.62747 l 17.82582,0.39093 z m 225.73256,-100.36025 21.68026,-3.64292 10.05475,-36.88927 c 5.53014,-20.2891 9.64978,-37.59164 9.15479,-38.45008 -0.49499,-0.85844 -16.9392,-14.67682 -36.54269,-30.7075 L 411.35638,81.802189 378.42495,94.55321 c -18.11228,7.01306 -33.23932,13.05892 -33.61563,13.43524 -0.37634,0.37631 -2.90794,13.58558 -5.62583,29.35391 l -4.9416,28.6697 30.34516,30.5134 30.34518,30.51339 13.01974,-1.37864 c 7.16086,-0.75825 22.77585,-3.01796 34.69999,-5.02156 z M 281.6804,179.9465 c 16.91345,-7.84558 31.07103,-14.58401 31.46132,-14.9743 1.53707,-1.53707 15.61037,-56.63398 15.0835,-59.05178 -0.30891,-1.4176 -13.10591,-12.974775 -28.43774,-25.68262 l -27.87608,-23.105172 -41.56256,10.303135 -41.56255,10.303135 -14.90762,22.974332 -14.90761,22.97434 4.97548,21.69957 c 2.73652,11.93476 5.71433,23.16429 6.61735,24.95451 1.00599,1.99433 16.19804,7.18741 39.22656,13.40877 20.67158,5.58462 38.38423,10.2229 39.36147,10.3073 0.97721,0.0844 15.61505,-6.26565 32.52848,-14.11122 z M 143.46921,124.07923 c 3.98571,-4.21551 9.51153,-29.686087 6.44037,-29.686087 -5.14804,0 -22.1059,12.494497 -32.1894,23.717057 -14.70436,16.36541 -13.88474,17.97696 6.50988,12.79973 9.24944,-2.348 17.90706,-5.42181 19.23915,-6.8307 z"
   id="path1284" /><path
   style="fill:#e6e6e6;stroke:#00ff00;stroke-width:2.16996"
   d="m 284.26441,438.41039 c -23.86953,-4.96842 -45.84035,-9.66337 -48.82404,-10.43323 -4.38716,-1.13198 -8.43432,-7.43954 -21.15709,-32.97367 -8.6527,-17.36566 -15.73219,-32.45479 -15.73219,-33.53139 0,-1.07661 14.89134,-12.94865 33.09185,-26.38233 18.20052,-13.43367 34.16901,-25.23896 35.48553,-26.23398 2.36491,-1.78738 80.64817,18.41167 83.57764,21.56513 0.80857,0.8704 6.96223,14.51383 13.67479,30.31873 l 12.20466,28.73619 -11.32597,14.66296 c -22.78523,29.4985 -32.77833,41.555 -35.16025,42.42026 -1.33968,0.48665 -21.9654,-3.18025 -45.83493,-8.14867 z"
   id="path1323" /><path
   style="fill:#e6e6e6;stroke:#00ff00;stroke-width:2.16996"
   d="m 258.22492,532.64743 c -28.56776,-2.93036 -78.80936,-20.49062 -81.93576,-28.6379 -0.69216,-1.80374 -1.90488,-7.59007 -2.69493,-12.85851 l -1.43646,-9.579 22.41898,-16.79395 c 12.33044,-9.23668 24.41214,-17.31166 26.84822,-17.94441 4.25542,-1.10529 103.273,15.03382 107.22626,17.47707 1.05987,0.65503 8.43675,11.40244 16.39308,23.88313 14.07414,22.0774 14.39683,22.90188 11.91123,30.43334 -1.40515,4.25764 -4.66476,9.05642 -7.24358,10.66396 -5.59274,3.48629 -67.92611,5.77305 -91.48704,3.35627 z"
   id="path1362" /><path
   style="fill:#e6e6e6;stroke:#00ff00;stroke-width:2.16996"
   d="m 417.71678,378.35771 c -10.14455,-1.04122 -19.50058,-2.28236 -20.79118,-2.75809 -1.29059,-0.47572 -7.45312,-12.32571 -13.69449,-26.3333 l -11.34796,-25.46835 14.55503,-28.44661 c 8.00527,-15.64564 16.88176,-32.4872 19.72553,-37.4257 l 5.1705,-8.97909 29.61048,-5.72241 c 16.28577,-3.14732 30.27076,-4.96562 31.07777,-4.04065 3.33911,3.82716 34.66257,57.41054 34.66257,59.29542 0,1.12636 -10.89617,20.11557 -24.2137,42.19825 l -24.21371,40.15033 -11.0481,-0.28834 c -6.07646,-0.15859 -19.34819,-1.14024 -29.49274,-2.18146 z"
   id="path1401" /><path
   style="fill:#e6e6e6;stroke:#00ff00;stroke-width:2.16996"
   d="m 489.35044,404.55242 -13.19784,-15.33432 7.01529,-12.33263 c 13.72236,-24.12346 37.05148,-62.35022 42.29031,-69.2963 2.92639,-3.88006 8.19967,-8.54342 11.7184,-10.36303 6.18892,-3.20041 6.39771,-3.14537 6.39771,1.68668 0,11.24152 -4.75145,42.85578 -8.86513,58.98511 -6.51282,25.5361 -24.29571,61.98881 -30.24028,61.98881 -1.05634,0 -7.85964,-6.90044 -15.11846,-15.33432 z"
   id="path1440" /><path
   style="fill:#e6e6e6;stroke:#00ff00;stroke-width:2.16996"
   d="M 62.370046,393.32245 C 46.137167,376.04335 32.135484,310.71122 36.749925,273.77848 c 1.789666,-14.324 2.002704,-14.39485 22.974326,-7.64049 l 14.463052,4.65814 10.049259,41.99 10.049259,41.98999 -10.906939,18.99308 c -14.374578,25.03154 -15.168277,25.77024 -21.008836,19.55325 z"
   id="path1479" /></svg>
