<?xml version="1.0" encoding="UTF-8" standalone="no"?>
<!-- Generator: Adobe Illustrator 16.0.0, SVG Export Plug-In . SVG Version: 6.00 Build 0)  -->

<svg
   version="1.1"
   id="svg2"
   inkscape:output_extension="org.inkscape.output.svg.inkscape"
   sodipodi:docname="sport_soccer.svg"
   inkscape:version="1.1.2 (b8e25be833, 2022-02-05)"
   sodipodi:version="0.32"
   x="0px"
   y="0px"
   width="580px"
   height="580px"
   viewBox="0 0 580 580"
   enable-background="new 0 0 580 580"
   xml:space="preserve"
   xmlns:inkscape="http://www.inkscape.org/namespaces/inkscape"
   xmlns:sodipodi="http://sodipodi.sourceforge.net/DTD/sodipodi-0.dtd"
   xmlns="http://www.w3.org/2000/svg"
   xmlns:svg="http://www.w3.org/2000/svg">
<sodipodi:namedview
   showgrid="false"
   inkscape:cy="49.909018"
   inkscape:cx="-138.87727"
   inkscape:zoom="0.46083856"
   pagecolor="#ffffff"
   bordercolor="#666666"
   guidetolerance="10.0"
   objecttolerance="10.0"
   gridtolerance="10.0"
   borderopacity="1.0"
   id="base"
   inkscape:current-layer="svg2"
   inkscape:window-y="-9"
   inkscape:window-x="-9"
   inkscape:pageopacity="0.0"
   inkscape:pageshadow="2"
   inkscape:window-width="1920"
   inkscape:window-height="1001"
   inkscape:pagecheckerboard="0"
   inkscape:window-maximized="1">
	</sodipodi:namedview>
<defs
   id="defs14">
	
	
		<inkscape:perspective
   inkscape:vp_z="580 : 290 : 1"
   inkscape:vp_y="0 : 1000 : 0"
   inkscape:vp_x="0 : 290 : 1"
   sodipodi:type="inkscape:persp3d"
   id="perspective2441"
   inkscape:persp3d-origin="290 : 193.33333 : 1">
		</inkscape:perspective>
	
		<inkscape:perspective
   inkscape:vp_z="60 : 30 : 1"
   inkscape:vp_y="0 : 1000 : 0"
   inkscape:vp_x="0 : 30 : 1"
   sodipodi:type="inkscape:persp3d"
   id="perspective3452"
   inkscape:persp3d-origin="30 : 20 : 1">
		</inkscape:perspective>
	
		<inkscape:perspective
   inkscape:vp_z="744.09448 : 526.18109 : 1"
   inkscape:vp_y="0 : 1000 : 0"
   inkscape:vp_x="0 : 526.18109 : 1"
   sodipodi:type="inkscape:persp3d"
   id="perspective4471"
   inkscape:persp3d-origin="372.04724 : 350.78739 : 1">
		</inkscape:perspective>
	
		<inkscape:perspective
   inkscape:vp_z="12 : 6 : 1"
   inkscape:vp_y="0 : 1000 : 0"
   inkscape:vp_x="0 : 6 : 1"
   sodipodi:type="inkscape:persp3d"
   id="perspective4668"
   inkscape:persp3d-origin="6 : 4 : 1">
		</inkscape:perspective>
	
		<inkscape:perspective
   inkscape:vp_z="32 : 16 : 1"
   inkscape:vp_y="0 : 1000 : 0"
   inkscape:vp_x="0 : 16 : 1"
   sodipodi:type="inkscape:persp3d"
   id="perspective4904"
   inkscape:persp3d-origin="16 : 10.666667 : 1">
		</inkscape:perspective>
	
		<inkscape:perspective
   inkscape:vp_z="32 : 16 : 1"
   inkscape:vp_y="0 : 1000 : 0"
   inkscape:vp_x="0 : 16 : 1"
   sodipodi:type="inkscape:persp3d"
   id="perspective5233"
   inkscape:persp3d-origin="16 : 10.666667 : 1">
		</inkscape:perspective>
	
		<inkscape:perspective
   inkscape:vp_z="500 : 250 : 1"
   inkscape:vp_y="0 : 1000 : 0"
   inkscape:vp_x="0 : 250 : 1"
   sodipodi:type="inkscape:persp3d"
   id="perspective5412"
   inkscape:persp3d-origin="250 : 166.66667 : 1">
		</inkscape:perspective>
	
		<inkscape:perspective
   inkscape:vp_z="405.71429 : 204.28572 : 1"
   inkscape:vp_y="0 : 1000 : 0"
   inkscape:vp_x="0 : 204.28572 : 1"
   sodipodi:type="inkscape:persp3d"
   id="perspective5571"
   inkscape:persp3d-origin="202.85715 : 136.19048 : 1">
		</inkscape:perspective>
	
		<inkscape:perspective
   inkscape:vp_z="128 : 64 : 1"
   inkscape:vp_y="0 : 1000 : 0"
   inkscape:vp_x="0 : 64 : 1"
   sodipodi:type="inkscape:persp3d"
   id="perspective6552"
   inkscape:persp3d-origin="64 : 42.666667 : 1">
		</inkscape:perspective>
	
		<inkscape:perspective
   inkscape:vp_z="477 : 171.5 : 1"
   inkscape:vp_y="0 : 1000 : 0"
   inkscape:vp_x="0 : 171.5 : 1"
   sodipodi:type="inkscape:persp3d"
   id="perspective8761"
   inkscape:persp3d-origin="238.5 : 114.33333 : 1">
		</inkscape:perspective>
	
		<inkscape:perspective
   inkscape:vp_z="105.66 : 50.309502 : 1"
   inkscape:vp_y="0 : 1000 : 0"
   inkscape:vp_x="0 : 50.309502 : 1"
   sodipodi:type="inkscape:persp3d"
   id="perspective10479"
   inkscape:persp3d-origin="52.830002 : 33.539668 : 1">
		</inkscape:perspective>
</defs>
<g
   id="layer3"
   transform="matrix(48.14969,0,0,48.14969,-536.27327,-33.306752)"
   inkscape:label="Layout"
   display="none">
	<rect
   id="rect4134"
   x="1"
   y="1"
   display="inline"
   fill="none"
   stroke="#757575"
   stroke-width="0.1"
   width="10"
   height="10" />
	<rect
   id="rect4136"
   x="2"
   y="2"
   display="inline"
   fill="none"
   stroke="#757575"
   stroke-width="0.1"
   width="8"
   height="8" />
</g>
<path
   fill="param(fill) #000"
   fill-opacity="255"
   stroke="param(outline) #FFF"
   stroke-opacity="255"
   stroke-width="param(outline-width) 0"
   d="M291.688,37.219c-148.497,0-269.03,114.776-269.03,256.188  c0,141.406,120.529,256.156,269.03,256.156c148.503,0,269.031-114.75,269.031-256.156  C560.719,151.995,440.185,37.219,291.688,37.219z M345.219,108.563L411.25,83.25l72.25,59.25l-20.344,74.094l-66.031,9.875  l-61.781-61.781L345.219,108.563z M190.093,78.313L271.5,58.5l56.125,46.406l-14.844,59.219l-62.344,28.969l-78.875-20.906  l-11.719-48.219L190.093,78.313z M118.406,119.031c3.851-4.951,7.878-9.743,13.563-13.594c5.684-4.401,11.365-7.886,19.25-11.187  c-2.567,10.086-5.147,20.195-7.531,30.281l-36.313,9.344C110.309,128.557,114.005,123.616,118.406,119.031z M70.719,399.407  c-5.868,2.379-11.382-3.855-17.25-16.688c-6.418-13.938-15.035-42.001-17.969-62.906c-2.75-21.094-2.57-41.623,1.281-62.344  l38.344,12.281l20.344,85.094L70.719,399.407z M95.468,259.845l67.313-68.376l72.781,20.344l18.531,78.844l-75.906,58.688  l-66.031-1.844L95.468,259.845z M353.501,531.812c-15.221,2.212-30.647,3.853-46.969,4.22c-16.871,0.367-34.835-0.016-51.156-1.845  c-17.421-2.566-33.567-7.159-47.688-11.75c-14.12-4.945-24.933-10.434-34.469-17.219l-1.281-24.75l48.781-37.062l109.313,19.28  l31.344,48.031L353.501,531.812z M332.219,449.656l-103.063-21.625l-33.938-67.875l73.532-54.281l82.719,21.656l26.406,62.156  L332.219,449.656z M394,377.031l-23.469-53.719l39.438-75.938l62.345-11.186l37.03,62.375l-51.155,84.531L394,377.031z   M522.374,396.656c-6.229,12.465-11.93,21.287-18.531,27.155l-29.688-34.499l51.875-87.656l18.001-9.906  c0.184,21.271-1.484,39.246-4.97,57.406C534.844,367.123,528.604,383.453,522.374,396.656z"
   id="path19" />
<path
   style="fill:#e6e6e6;stroke:#00ff00;stroke-width:2.16996"
   d="m 125.90285,346.28589 -12.97443,-1.26268 -8.14372,-42.31417 -8.14372,-42.31416 33.02665,-33.09185 c 18.16466,-18.20052 34.30789,-33.09185 35.87385,-33.09185 4.20199,0 66.39685,17.52639 68.10228,19.1911 0.80208,0.78292 5.45126,18.41234 10.33152,39.17648 8.35754,35.55906 8.6511,37.90912 5.05154,40.43979 -2.1019,1.47774 -18.9571,14.49589 -37.45598,28.92921 l -33.63434,26.24241 -19.52962,-0.3208 c -10.74129,-0.17644 -25.3681,-0.889 -32.50403,-1.58348 z"
   id="path911" /><path
   style="fill:#e6e6e6;stroke:#00ff00;stroke-width:2.16996"
   d="m 59.624976,391.1348 c -6.171797,-10.06381 -12.609078,-27.79444 -18.614893,-51.27224 -4.159515,-16.26028 -5.199109,-25.855 -5.172559,-47.73906 0.01827,-15.06379 0.794742,-28.58743 1.725481,-30.05253 1.288674,-2.02854 5.859618,-1.29763 19.166443,3.06479 l 17.474189,5.72862 9.996398,41.76912 9.996399,41.76913 -12.052544,21.89227 c -6.628901,12.04074 -13.43436,21.89227 -15.123242,21.89227 -1.688884,0 -5.016937,-3.17357 -7.395672,-7.05237 z"
   id="path950" /><path
   style="fill:#e6e6e6;stroke:#00ff00;stroke-width:2.16996"
   d="m 210.05989,181.45295 -37.31525,-10.02632 -5.80141,-23.37377 -5.80142,-23.37377 14.90722,-22.65718 14.90721,-22.657173 35.82178,-8.693037 c 19.70198,-4.781171 37.92191,-8.967506 40.48874,-9.302966 3.23215,-0.422413 12.98763,6.249328 31.73144,21.70102 l 27.06448,22.310946 -7.13716,28.30248 c -3.92544,15.56636 -7.51588,28.68119 -7.97875,29.14406 -1.71448,1.71449 -60.74716,29.20372 -62.13314,28.93301 -0.79118,-0.15455 -18.23036,-4.79282 -38.75374,-10.3073 z"
   id="path989" /><path
   style="fill:#e6e6e6;stroke:#00ff00;stroke-width:2.16996"
   d="m 111.7528,129.7825 c 0,-3.2872 22.42311,-25.35383 30.20942,-29.72916 l 7.30453,-4.104608 -1.51754,6.274568 c -5.555,22.96819 -4.56884,21.6241 -18.08432,24.64834 -6.86796,1.53679 -13.7078,3.26237 -15.19964,3.83463 -1.49185,0.57226 -2.71245,0.15656 -2.71245,-0.92377 z"
   id="path1028" /><path
   style="fill:#e6e6e6;stroke:#00ff00;stroke-width:2.16996"
   d="m 366.89077,194.49784 -30.21142,-30.38771 3.96417,-23.46622 c 2.1803,-12.90642 4.60278,-25.27052 5.38329,-27.47578 0.96306,-2.72105 11.14125,-7.76963 31.67213,-15.709993 16.63917,-6.435233 31.22951,-11.708482 32.42299,-11.718331 2.5887,-0.02136 71.72466,56.548884 71.34739,58.379744 -0.14367,0.69717 -4.49413,17.04411 -9.6677,36.32652 l -9.40648,35.05892 -21.79669,3.35281 c -11.98818,1.84405 -26.67909,3.95467 -32.64648,4.69028 l -10.84978,1.33748 z"
   id="path1067" /><path
   style="fill:#e6e6e6;stroke:#00ff00;stroke-width:2.16996"
   d="m 433.99146,379.72956 c -1.19348,-0.41542 -10.47004,-1.38508 -20.61459,-2.15479 l -18.44464,-1.39948 -11.40314,-26.42583 -11.40314,-26.42582 18.41844,-35.65874 c 10.13015,-19.61231 19.32738,-36.56768 20.4383,-37.6786 2.77843,-2.77842 59.40153,-12.6867 61.21576,-10.71193 2.9009,3.15761 34.48658,57.38764 34.48658,59.21065 0,1.02763 -10.92484,19.97509 -24.27742,42.10546 l -24.27742,40.23703 -10.98439,-0.17131 c -6.04141,-0.0942 -11.96086,-0.51121 -13.15434,-0.92664 z"
   id="path1106" /><path
   style="fill:#e6e6e6;stroke:#00ff00;stroke-width:2.16996"
   d="m 489.73267,405.46824 c -7.53359,-8.76581 -13.29328,-16.67538 -12.79932,-17.57683 0.49396,-0.90146 11.9504,-20.50114 25.45874,-43.55485 21.25027,-36.2663 25.68078,-42.48731 32.87142,-46.1557 9.89593,-5.04852 9.44652,-6.99901 6.03873,26.20905 -2.68564,26.17088 -10.10278,51.22039 -21.94621,74.11773 -13.33126,25.77382 -13.434,25.79795 -29.62336,6.9606 z"
   id="path1145" /><path
   style="fill:#e6e6e6;stroke:#00ff00;stroke-width:2.16996"
   d="m 278.33946,437.43227 c -25.93477,-5.62511 -47.55118,-10.65343 -48.03646,-11.17405 -0.48528,-0.52063 -8.17085,-15.5938 -17.07906,-33.49595 l -16.19673,-32.54936 36.14659,-26.46027 36.14659,-26.46028 39.439,10.25421 c 21.69145,5.63982 40.34737,11.19982 41.45761,12.35556 1.11023,1.15574 7.43474,15.01777 14.05446,30.80452 l 12.03584,28.70318 -21.78221,28.80069 c -11.98021,15.84038 -23.41329,28.9466 -25.40685,29.12495 -1.99355,0.17835 -24.84401,-4.27809 -50.77878,-9.9032 z"
   id="path1184" /><path
   style="fill:#e6e6e6;stroke:#00ff00;stroke-width:2.16996"
   d="m 248.96973,531.79341 c -28.93902,-5.51805 -68.93414,-20.18021 -72.79702,-26.68729 -0.54723,-0.92181 -1.62774,-6.55843 -2.40113,-12.52581 l -1.40617,-10.84979 24.48512,-18.55463 24.48512,-18.55463 51.68873,9.15857 c 28.42881,5.03722 52.94904,9.6422 54.4894,10.23329 1.54035,0.59109 9.34423,11.33931 17.34195,23.88492 l 14.5413,22.81021 -2.7103,9.04617 c -1.8887,6.30394 -4.39622,9.7122 -8.27189,11.24329 -9.27931,3.66583 -81.36787,4.24264 -99.44511,0.7957 z"
   id="path1223" /></svg>
